<?xml version="1.0" encoding="UTF-8" standalone="no"?>
<!DOCTYPE svg PUBLIC "-//W3C//DTD SVG 1.1//EN"
 "http://www.w3.org/Graphics/SVG/1.1/DTD/svg11.dtd">
<!-- Generated by graphviz version 2.36.0 (20140111.2315)
 -->
<!-- Title: guest_reservation_manager.models.RuthSheet Pages: 1 -->
<svg width="182pt" height="162pt"
 viewBox="0.00 0.00 182.00 162.00" xmlns="http://www.w3.org/2000/svg" xmlns:xlink="http://www.w3.org/1999/xlink">
<g id="graph0" class="graph" transform="scale(1 1) rotate(0) translate(4 158)">
<title>guest_reservation_manager.models.RuthSheet</title>
<polygon fill="white" stroke="none" points="-4,4 -4,-158 178,-158 178,4 -4,4"/>
<!-- Node1 -->
<g id="node1" class="node"><title>Node1</title>
<polygon fill="#bfbfbf" stroke="black" points="0,-1 0,-31 174,-31 174,-1 0,-1"/>
<text text-anchor="start" x="8" y="-19" font-family="Helvetica,sans-Serif" font-size="10.00">guest_reservation_manager.models.</text>
<text text-anchor="middle" x="87" y="-8" font-family="Helvetica,sans-Serif" font-size="10.00">RuthSheet</text>
</g>
<!-- Node2 -->
<g id="node2" class="node"><title>Node2</title>
<polygon fill="white" stroke="#bfbfbf" points="36.5,-134.5 36.5,-153.5 79.5,-153.5 79.5,-134.5 36.5,-134.5"/>
<text text-anchor="middle" x="58" y="-141.5" font-family="Helvetica,sans-Serif" font-size="10.00">Model</text>
</g>
<!-- Node2&#45;&gt;Node1 -->
<g id="edge1" class="edge"><title>Node2&#45;&gt;Node1</title>
<path fill="none" stroke="midnightblue" d="M62.2524,-124.524C68.0794,-99.2068 78.4227,-54.2668 83.7016,-31.3311"/>
<polygon fill="midnightblue" stroke="midnightblue" points="58.8255,-123.809 59.9933,-134.34 65.6471,-125.379 58.8255,-123.809"/>
</g>
<!-- Node3 -->
<g id="node3" class="node"><title>Node3</title>
<polygon fill="white" stroke="#bfbfbf" points="98,-134.5 98,-153.5 136,-153.5 136,-134.5 98,-134.5"/>
<text text-anchor="middle" x="117" y="-141.5" font-family="Helvetica,sans-Serif" font-size="10.00">tuple</text>
</g>
<!-- Node3&#45;&gt;Node1 -->
<g id="edge2" class="edge"><title>Node3&#45;&gt;Node1</title>
<path fill="none" stroke="#9a32cd" stroke-dasharray="5,2" d="M112.601,-124.524C106.573,-99.2068 95.8731,-54.2668 90.4122,-31.3311"/>
<polygon fill="#9a32cd" stroke="#9a32cd" points="109.217,-125.422 114.938,-134.34 116.027,-123.801 109.217,-125.422"/>
<text text-anchor="middle" x="137" y="-108" font-family="Helvetica,sans-Serif" font-size="10.00"> D_Resort</text>
<text text-anchor="middle" x="137" y="-97" font-family="Helvetica,sans-Serif" font-size="10.00">B_UseDate</text>
<text text-anchor="middle" x="137" y="-86" font-family="Helvetica,sans-Serif" font-size="10.00">F_Slp</text>
<text text-anchor="middle" x="137" y="-75" font-family="Helvetica,sans-Serif" font-size="10.00">A_ResDate</text>
<text text-anchor="middle" x="137" y="-64" font-family="Helvetica,sans-Serif" font-size="10.00">E_UnitSize</text>
<text text-anchor="middle" x="137" y="-53" font-family="Helvetica,sans-Serif" font-size="10.00">C_NTS</text>
</g>
</g>
</svg>
