<?xml version="1.0" encoding="UTF-8" standalone="no"?>
<!DOCTYPE svg PUBLIC "-//W3C//DTD SVG 1.1//EN"
 "http://www.w3.org/Graphics/SVG/1.1/DTD/svg11.dtd">
<!-- Generated by graphviz version 2.36.0 (20140111.2315)
 -->
<!-- Title: reservation_manager.views.ScrapeWyndham.parseConfirmationPage Pages: 1 -->
<svg width="434pt" height="38pt"
 viewBox="0.00 0.00 434.00 38.00" xmlns="http://www.w3.org/2000/svg" xmlns:xlink="http://www.w3.org/1999/xlink">
<g id="graph0" class="graph" transform="scale(1 1) rotate(0) translate(4 34)">
<title>reservation_manager.views.ScrapeWyndham.parseConfirmationPage</title>
<polygon fill="white" stroke="none" points="-4,4 -4,-34 430,-34 430,4 -4,4"/>
<!-- Node1 -->
<g id="node1" class="node"><title>Node1</title>
<polygon fill="#bfbfbf" stroke="black" points="0.5,-0 0.5,-30 197.5,-30 197.5,-0 0.5,-0"/>
<text text-anchor="start" x="8.5" y="-18" font-family="Helvetica,sans-Serif" font-size="10.00">reservation_manager.views.</text>
<text text-anchor="middle" x="99" y="-7" font-family="Helvetica,sans-Serif" font-size="10.00">ScrapeWyndham.parseConfirmationPage</text>
</g>
<!-- Node2 -->
<g id="node2" class="node"><title>Node2</title>
<g id="a_node2"><a xlink:href="classreservation__manager_1_1views_1_1ScrapeWyndham.html#a777bd0cf7eb79e7901b34697f7414d01" target="_top" xlink:title="reservation_manager.views.\lScrapeWyndham.getConfirmationPages">
<polygon fill="white" stroke="black" points="234.5,-0 234.5,-30 425.5,-30 425.5,-0 234.5,-0"/>
<text text-anchor="start" x="242.5" y="-18" font-family="Helvetica,sans-Serif" font-size="10.00">reservation_manager.views.</text>
<text text-anchor="middle" x="330" y="-7" font-family="Helvetica,sans-Serif" font-size="10.00">ScrapeWyndham.getConfirmationPages</text>
</a>
</g>
</g>
<!-- Node1&#45;&gt;Node2 -->
<g id="edge1" class="edge"><title>Node1&#45;&gt;Node2</title>
<path fill="none" stroke="midnightblue" d="M207.799,-15C216.703,-15 225.661,-15 234.457,-15"/>
<polygon fill="midnightblue" stroke="midnightblue" points="207.781,-11.5001 197.781,-15 207.781,-18.5001 207.781,-11.5001"/>
</g>
</g>
</svg>
