<?xml version="1.0" encoding="UTF-8" standalone="no"?>
<!DOCTYPE svg PUBLIC "-//W3C//DTD SVG 1.1//EN"
 "http://www.w3.org/Graphics/SVG/1.1/DTD/svg11.dtd">
<!-- Generated by graphviz version 2.36.0 (20140111.2315)
 -->
<!-- Title: reservation_manager.apps.ReservationManagerConfig Pages: 1 -->
<svg width="142pt" height="108pt"
 viewBox="0.00 0.00 142.00 108.00" xmlns="http://www.w3.org/2000/svg" xmlns:xlink="http://www.w3.org/1999/xlink">
<g id="graph0" class="graph" transform="scale(1 1) rotate(0) translate(4 104)">
<title>reservation_manager.apps.ReservationManagerConfig</title>
<polygon fill="white" stroke="none" points="-4,4 -4,-104 138,-104 138,4 -4,4"/>
<!-- Node1 -->
<g id="node1" class="node"><title>Node1</title>
<polygon fill="#bfbfbf" stroke="black" points="-0.5,-1 -0.5,-31 134.5,-31 134.5,-1 -0.5,-1"/>
<text text-anchor="start" x="7.5" y="-19" font-family="Helvetica,sans-Serif" font-size="10.00">reservation_manager.apps.</text>
<text text-anchor="middle" x="67" y="-8" font-family="Helvetica,sans-Serif" font-size="10.00">ReservationManagerConfig</text>
</g>
<!-- Node2 -->
<g id="node2" class="node"><title>Node2</title>
<polygon fill="white" stroke="#bfbfbf" points="1,-80.5 1,-99.5 63,-99.5 63,-80.5 1,-80.5"/>
<text text-anchor="middle" x="32" y="-87.5" font-family="Helvetica,sans-Serif" font-size="10.00">AppConfig</text>
</g>
<!-- Node2&#45;&gt;Node1 -->
<g id="edge1" class="edge"><title>Node2&#45;&gt;Node1</title>
<path fill="none" stroke="midnightblue" d="M40.6509,-71.2038C46.6409,-58.8816 54.508,-42.6978 60.0819,-31.2316"/>
<polygon fill="midnightblue" stroke="midnightblue" points="37.3766,-69.934 36.1524,-80.4579 43.6722,-72.9944 37.3766,-69.934"/>
</g>
<!-- Node3 -->
<g id="node3" class="node"><title>Node3</title>
<polygon fill="white" stroke="#bfbfbf" points="81.5,-80.5 81.5,-99.5 122.5,-99.5 122.5,-80.5 81.5,-80.5"/>
<text text-anchor="middle" x="102" y="-87.5" font-family="Helvetica,sans-Serif" font-size="10.00">string</text>
</g>
<!-- Node3&#45;&gt;Node1 -->
<g id="edge2" class="edge"><title>Node3&#45;&gt;Node1</title>
<path fill="none" stroke="#9a32cd" stroke-dasharray="5,2" d="M93.3491,-71.2038C87.3591,-58.8816 79.492,-42.6978 73.9181,-31.2316"/>
<polygon fill="#9a32cd" stroke="#9a32cd" points="90.3278,-72.9944 97.8476,-80.4579 96.6234,-69.934 90.3278,-72.9944"/>
<text text-anchor="middle" x="103" y="-53.5" font-family="Helvetica,sans-Serif" font-size="10.00"> name</text>
</g>
</g>
</svg>
