<?xml version="1.0" encoding="UTF-8" standalone="no"?>
<!DOCTYPE svg PUBLIC "-//W3C//DTD SVG 1.1//EN"
 "http://www.w3.org/Graphics/SVG/1.1/DTD/svg11.dtd">
<!-- Generated by graphviz version 2.36.0 (20140111.2315)
 -->
<!-- Title: owners_point_manager.views.ScrapeWyndham.parsePointStatusRow Pages: 1 -->
<svg width="426pt" height="38pt"
 viewBox="0.00 0.00 426.00 38.00" xmlns="http://www.w3.org/2000/svg" xmlns:xlink="http://www.w3.org/1999/xlink">
<g id="graph0" class="graph" transform="scale(1 1) rotate(0) translate(4 34)">
<title>owners_point_manager.views.ScrapeWyndham.parsePointStatusRow</title>
<polygon fill="white" stroke="none" points="-4,4 -4,-34 422,-34 422,4 -4,4"/>
<!-- Node1 -->
<g id="node1" class="node"><title>Node1</title>
<polygon fill="#bfbfbf" stroke="black" points="0,-0 0,-30 190,-30 190,-0 0,-0"/>
<text text-anchor="start" x="8" y="-18" font-family="Helvetica,sans-Serif" font-size="10.00">owners_point_manager.views.</text>
<text text-anchor="middle" x="95" y="-7" font-family="Helvetica,sans-Serif" font-size="10.00">ScrapeWyndham.parsePointStatusRow</text>
</g>
<!-- Node2 -->
<g id="node2" class="node"><title>Node2</title>
<g id="a_node2"><a xlink:href="classowners__point__manager_1_1views_1_1ScrapeWyndham.html#aec326b63f6697741e2ea30483046e6cb" target="_top" xlink:title="owners_point_manager.views.\lScrapeWyndham.parsePointStatusPage">
<polygon fill="white" stroke="black" points="226,-0 226,-30 418,-30 418,-0 226,-0"/>
<text text-anchor="start" x="234" y="-18" font-family="Helvetica,sans-Serif" font-size="10.00">owners_point_manager.views.</text>
<text text-anchor="middle" x="322" y="-7" font-family="Helvetica,sans-Serif" font-size="10.00">ScrapeWyndham.parsePointStatusPage</text>
</a>
</g>
</g>
<!-- Node1&#45;&gt;Node2 -->
<g id="edge1" class="edge"><title>Node1&#45;&gt;Node2</title>
<path fill="none" stroke="midnightblue" d="M200.128,-15C208.691,-15 217.32,-15 225.814,-15"/>
<polygon fill="midnightblue" stroke="midnightblue" points="200.117,-11.5001 190.117,-15 200.117,-18.5001 200.117,-11.5001"/>
</g>
</g>
</svg>
