<?xml version="1.0" encoding="UTF-8" standalone="no"?>
<!DOCTYPE svg PUBLIC "-//W3C//DTD SVG 1.1//EN"
 "http://www.w3.org/Graphics/SVG/1.1/DTD/svg11.dtd">
<!-- Generated by graphviz version 2.36.0 (20140111.2315)
 -->
<!-- Title: reservation_manager.views.ScrapeWyndham.parsePointsPage Pages: 1 -->
<svg width="1076pt" height="38pt"
 viewBox="0.00 0.00 1076.00 38.00" xmlns="http://www.w3.org/2000/svg" xmlns:xlink="http://www.w3.org/1999/xlink">
<g id="graph0" class="graph" transform="scale(1 1) rotate(0) translate(4 34)">
<title>reservation_manager.views.ScrapeWyndham.parsePointsPage</title>
<polygon fill="white" stroke="none" points="-4,4 -4,-34 1072,-34 1072,4 -4,4"/>
<!-- Node1 -->
<g id="node1" class="node"><title>Node1</title>
<polygon fill="#bfbfbf" stroke="black" points="0.5,-0 0.5,-30 169.5,-30 169.5,-0 0.5,-0"/>
<text text-anchor="start" x="8.5" y="-18" font-family="Helvetica,sans-Serif" font-size="10.00">reservation_manager.views.</text>
<text text-anchor="middle" x="85" y="-7" font-family="Helvetica,sans-Serif" font-size="10.00">ScrapeWyndham.parsePointsPage</text>
</g>
<!-- Node2 -->
<g id="node2" class="node"><title>Node2</title>
<g id="a_node2"><a xlink:href="classreservation__manager_1_1views_1_1ScrapeWyndham.html#a2ec515f19139d7640bd548a99f6566b6" target="_top" xlink:title="reservation_manager.views.\lScrapeWyndham.getToPointsPage">
<polygon fill="white" stroke="black" points="206,-0 206,-30 376,-30 376,-0 206,-0"/>
<text text-anchor="start" x="214" y="-18" font-family="Helvetica,sans-Serif" font-size="10.00">reservation_manager.views.</text>
<text text-anchor="middle" x="291" y="-7" font-family="Helvetica,sans-Serif" font-size="10.00">ScrapeWyndham.getToPointsPage</text>
</a>
</g>
</g>
<!-- Node1&#45;&gt;Node2 -->
<g id="edge1" class="edge"><title>Node1&#45;&gt;Node2</title>
<path fill="none" stroke="midnightblue" d="M179.751,-15C188.474,-15 197.279,-15 205.906,-15"/>
<polygon fill="midnightblue" stroke="midnightblue" points="179.563,-11.5001 169.563,-15 179.563,-18.5001 179.563,-11.5001"/>
</g>
<!-- Node3 -->
<g id="node3" class="node"><title>Node3</title>
<g id="a_node3"><a xlink:href="classreservation__manager_1_1views_1_1ScrapeWyndham.html#a7712843a06596ae009dbe219d6725214" target="_top" xlink:title="reservation_manager.views.\lScrapeWyndham.parseConfirmationRow">
<polygon fill="white" stroke="black" points="412,-0 412,-30 606,-30 606,-0 412,-0"/>
<text text-anchor="start" x="420" y="-18" font-family="Helvetica,sans-Serif" font-size="10.00">reservation_manager.views.</text>
<text text-anchor="middle" x="509" y="-7" font-family="Helvetica,sans-Serif" font-size="10.00">ScrapeWyndham.parseConfirmationRow</text>
</a>
</g>
</g>
<!-- Node2&#45;&gt;Node3 -->
<g id="edge2" class="edge"><title>Node2&#45;&gt;Node3</title>
<path fill="none" stroke="midnightblue" d="M386.384,-15C394.849,-15 403.427,-15 411.905,-15"/>
<polygon fill="midnightblue" stroke="midnightblue" points="386.13,-11.5001 376.13,-15 386.13,-18.5001 386.13,-11.5001"/>
</g>
<!-- Node4 -->
<g id="node4" class="node"><title>Node4</title>
<g id="a_node4"><a xlink:href="classreservation__manager_1_1views_1_1ScrapeWyndham.html#ae214a263f7f81c6a692c94a37bf7c818" target="_top" xlink:title="reservation_manager.views.\lScrapeWyndham.parseConfirmationPage">
<polygon fill="white" stroke="black" points="642.5,-0 642.5,-30 839.5,-30 839.5,-0 642.5,-0"/>
<text text-anchor="start" x="650.5" y="-18" font-family="Helvetica,sans-Serif" font-size="10.00">reservation_manager.views.</text>
<text text-anchor="middle" x="741" y="-7" font-family="Helvetica,sans-Serif" font-size="10.00">ScrapeWyndham.parseConfirmationPage</text>
</a>
</g>
</g>
<!-- Node3&#45;&gt;Node4 -->
<g id="edge3" class="edge"><title>Node3&#45;&gt;Node4</title>
<path fill="none" stroke="midnightblue" d="M616.337,-15C625.001,-15 633.731,-15 642.329,-15"/>
<polygon fill="midnightblue" stroke="midnightblue" points="616.208,-11.5001 606.208,-15 616.208,-18.5001 616.208,-11.5001"/>
</g>
<!-- Node5 -->
<g id="node5" class="node"><title>Node5</title>
<g id="a_node5"><a xlink:href="classreservation__manager_1_1views_1_1ScrapeWyndham.html#a777bd0cf7eb79e7901b34697f7414d01" target="_top" xlink:title="reservation_manager.views.\lScrapeWyndham.getConfirmationPages">
<polygon fill="white" stroke="black" points="876.5,-0 876.5,-30 1067.5,-30 1067.5,-0 876.5,-0"/>
<text text-anchor="start" x="884.5" y="-18" font-family="Helvetica,sans-Serif" font-size="10.00">reservation_manager.views.</text>
<text text-anchor="middle" x="972" y="-7" font-family="Helvetica,sans-Serif" font-size="10.00">ScrapeWyndham.getConfirmationPages</text>
</a>
</g>
</g>
<!-- Node4&#45;&gt;Node5 -->
<g id="edge4" class="edge"><title>Node4&#45;&gt;Node5</title>
<path fill="none" stroke="midnightblue" d="M849.799,-15C858.703,-15 867.661,-15 876.457,-15"/>
<polygon fill="midnightblue" stroke="midnightblue" points="849.781,-11.5001 839.781,-15 849.781,-18.5001 849.781,-11.5001"/>
</g>
</g>
</svg>
