<?xml version="1.0" encoding="UTF-8" standalone="no"?>
<!DOCTYPE svg PUBLIC "-//W3C//DTD SVG 1.1//EN"
 "http://www.w3.org/Graphics/SVG/1.1/DTD/svg11.dtd">
<!-- Generated by graphviz version 2.36.0 (20140111.2315)
 -->
<!-- Title: reservation_manager.views.ScrapeWyndham.parseConfirmationRow Pages: 1 -->
<svg width="614pt" height="136pt"
 viewBox="0.00 0.00 614.00 136.00" xmlns="http://www.w3.org/2000/svg" xmlns:xlink="http://www.w3.org/1999/xlink">
<g id="graph0" class="graph" transform="scale(1 1) rotate(0) translate(4 132)">
<title>reservation_manager.views.ScrapeWyndham.parseConfirmationRow</title>
<polygon fill="white" stroke="none" points="-4,4 -4,-132 610,-132 610,4 -4,4"/>
<!-- Node1 -->
<g id="node1" class="node"><title>Node1</title>
<polygon fill="#bfbfbf" stroke="black" points="0,-49 0,-79 194,-79 194,-49 0,-49"/>
<text text-anchor="start" x="8" y="-67" font-family="Helvetica,sans-Serif" font-size="10.00">reservation_manager.views.</text>
<text text-anchor="middle" x="97" y="-56" font-family="Helvetica,sans-Serif" font-size="10.00">ScrapeWyndham.parseConfirmationRow</text>
</g>
<!-- Node2 -->
<g id="node2" class="node"><title>Node2</title>
<g id="a_node2"><a xlink:href="classowners__point__manager_1_1views_1_1ScrapeWyndham.html#aa0a734a6401d08811119bbb5dfd98327" target="_top" xlink:title="owners_point_manager.views.\lScrapeWyndham.reformatDate">
<polygon fill="white" stroke="black" points="239,-98 239,-128 391,-128 391,-98 239,-98"/>
<text text-anchor="start" x="247" y="-116" font-family="Helvetica,sans-Serif" font-size="10.00">owners_point_manager.views.</text>
<text text-anchor="middle" x="315" y="-105" font-family="Helvetica,sans-Serif" font-size="10.00">ScrapeWyndham.reformatDate</text>
</a>
</g>
</g>
<!-- Node1&#45;&gt;Node2 -->
<g id="edge1" class="edge"><title>Node1&#45;&gt;Node2</title>
<path fill="none" stroke="midnightblue" d="M164.275,-79.0346C187.6,-84.3259 213.993,-90.3133 238.053,-95.7712"/>
<polygon fill="midnightblue" stroke="midnightblue" points="237.324,-99.1947 247.85,-97.9938 238.872,-92.3682 237.324,-99.1947"/>
</g>
<!-- Node3 -->
<g id="node3" class="node"><title>Node3</title>
<g id="a_node3"><a xlink:href="classreservation__manager_1_1views_1_1ScrapeWyndham.html#abd8c3dd2bad2ab05e01312138b10fcc9" target="_top" xlink:title="reservation_manager.views.\lScrapeWyndham.reformatDate">
<polygon fill="white" stroke="black" points="239,-49 239,-79 391,-79 391,-49 239,-49"/>
<text text-anchor="start" x="247" y="-67" font-family="Helvetica,sans-Serif" font-size="10.00">reservation_manager.views.</text>
<text text-anchor="middle" x="315" y="-56" font-family="Helvetica,sans-Serif" font-size="10.00">ScrapeWyndham.reformatDate</text>
</a>
</g>
</g>
<!-- Node1&#45;&gt;Node3 -->
<g id="edge2" class="edge"><title>Node1&#45;&gt;Node3</title>
<path fill="none" stroke="midnightblue" d="M194.313,-64C205.769,-64 217.402,-64 228.689,-64"/>
<polygon fill="midnightblue" stroke="midnightblue" points="228.942,-67.5001 238.942,-64 228.942,-60.5001 228.942,-67.5001"/>
</g>
<!-- Node4 -->
<g id="node4" class="node"><title>Node4</title>
<g id="a_node4"><a xlink:href="classreservation__manager_1_1views_1_1ScrapeWyndham.html#a2ec515f19139d7640bd548a99f6566b6" target="_top" xlink:title="reservation_manager.views.\lScrapeWyndham.getToPointsPage">
<polygon fill="white" stroke="black" points="230,-0 230,-30 400,-30 400,-0 230,-0"/>
<text text-anchor="start" x="238" y="-18" font-family="Helvetica,sans-Serif" font-size="10.00">reservation_manager.views.</text>
<text text-anchor="middle" x="315" y="-7" font-family="Helvetica,sans-Serif" font-size="10.00">ScrapeWyndham.getToPointsPage</text>
</a>
</g>
</g>
<!-- Node1&#45;&gt;Node4 -->
<g id="edge3" class="edge"><title>Node1&#45;&gt;Node4</title>
<path fill="none" stroke="midnightblue" d="M164.275,-48.9654C187.6,-43.6741 213.993,-37.6867 238.053,-32.2288"/>
<polygon fill="midnightblue" stroke="midnightblue" points="238.872,-35.6318 247.85,-30.0062 237.324,-28.8053 238.872,-35.6318"/>
</g>
<!-- Node5 -->
<g id="node5" class="node"><title>Node5</title>
<g id="a_node5"><a xlink:href="classreservation__manager_1_1views_1_1ScrapeWyndham.html#a2c3b857634800266a0fffc9b93d4e3db" target="_top" xlink:title="reservation_manager.views.\lScrapeWyndham.parsePointsPage">
<polygon fill="white" stroke="black" points="436.5,-0 436.5,-30 605.5,-30 605.5,-0 436.5,-0"/>
<text text-anchor="start" x="444.5" y="-18" font-family="Helvetica,sans-Serif" font-size="10.00">reservation_manager.views.</text>
<text text-anchor="middle" x="521" y="-7" font-family="Helvetica,sans-Serif" font-size="10.00">ScrapeWyndham.parsePointsPage</text>
</a>
</g>
</g>
<!-- Node4&#45;&gt;Node5 -->
<g id="edge4" class="edge"><title>Node4&#45;&gt;Node5</title>
<path fill="none" stroke="midnightblue" d="M400.152,-15C408.751,-15 417.524,-15 426.217,-15"/>
<polygon fill="midnightblue" stroke="midnightblue" points="426.37,-18.5001 436.37,-15 426.37,-11.5001 426.37,-18.5001"/>
</g>
</g>
</svg>
