<?xml version="1.0" encoding="UTF-8" standalone="no"?>
<!DOCTYPE svg PUBLIC "-//W3C//DTD SVG 1.1//EN"
 "http://www.w3.org/Graphics/SVG/1.1/DTD/svg11.dtd">
<!-- Generated by graphviz version 2.36.0 (20140111.2315)
 -->
<!-- Title: reservation_manager.models.Owner Pages: 1 -->
<svg width="202pt" height="184pt"
 viewBox="0.00 0.00 202.00 184.00" xmlns="http://www.w3.org/2000/svg" xmlns:xlink="http://www.w3.org/1999/xlink">
<g id="graph0" class="graph" transform="scale(1 1) rotate(0) translate(4 180)">
<title>reservation_manager.models.Owner</title>
<polygon fill="white" stroke="none" points="-4,4 -4,-180 198,-180 198,4 -4,4"/>
<!-- Node1 -->
<g id="node1" class="node"><title>Node1</title>
<polygon fill="#bfbfbf" stroke="black" points="-0.5,-1 -0.5,-31 144.5,-31 144.5,-1 -0.5,-1"/>
<text text-anchor="start" x="7.5" y="-19" font-family="Helvetica,sans-Serif" font-size="10.00">reservation_manager.models.</text>
<text text-anchor="middle" x="72" y="-8" font-family="Helvetica,sans-Serif" font-size="10.00">Owner</text>
</g>
<!-- Node2 -->
<g id="node2" class="node"><title>Node2</title>
<polygon fill="white" stroke="#bfbfbf" points="21.5,-156.5 21.5,-175.5 64.5,-175.5 64.5,-156.5 21.5,-156.5"/>
<text text-anchor="middle" x="43" y="-163.5" font-family="Helvetica,sans-Serif" font-size="10.00">Model</text>
</g>
<!-- Node2&#45;&gt;Node1 -->
<g id="edge1" class="edge"><title>Node2&#45;&gt;Node1</title>
<path fill="none" stroke="midnightblue" d="M46.6847,-146.195C52.5548,-116.238 63.9038,-58.3187 69.1781,-31.4012"/>
<polygon fill="midnightblue" stroke="midnightblue" points="43.2155,-145.699 44.7272,-156.185 50.0849,-147.045 43.2155,-145.699"/>
</g>
<!-- Node3 -->
<g id="node3" class="node"><title>Node3</title>
<polygon fill="white" stroke="#bfbfbf" points="83,-156.5 83,-175.5 121,-175.5 121,-156.5 83,-156.5"/>
<text text-anchor="middle" x="102" y="-163.5" font-family="Helvetica,sans-Serif" font-size="10.00">tuple</text>
</g>
<!-- Node3&#45;&gt;Node1 -->
<g id="edge2" class="edge"><title>Node3&#45;&gt;Node1</title>
<path fill="none" stroke="#9a32cd" stroke-dasharray="5,2" d="M98.1883,-146.195C92.1157,-116.238 80.3754,-58.3187 74.9192,-31.4012"/>
<polygon fill="#9a32cd" stroke="#9a32cd" points="94.7963,-147.08 100.213,-156.185 101.657,-145.689 94.7963,-147.08"/>
<text text-anchor="middle" x="145.5" y="-130" font-family="Helvetica,sans-Serif" font-size="10.00"> password</text>
<text text-anchor="middle" x="145.5" y="-119" font-family="Helvetica,sans-Serif" font-size="10.00">last_name</text>
<text text-anchor="middle" x="145.5" y="-108" font-family="Helvetica,sans-Serif" font-size="10.00">phone_number</text>
<text text-anchor="middle" x="145.5" y="-97" font-family="Helvetica,sans-Serif" font-size="10.00">email</text>
<text text-anchor="middle" x="145.5" y="-86" font-family="Helvetica,sans-Serif" font-size="10.00">username</text>
<text text-anchor="start" x="97" y="-75" font-family="Helvetica,sans-Serif" font-size="10.00">owner_reimbursement</text>
<text text-anchor="middle" x="145.5" y="-64" font-family="Helvetica,sans-Serif" font-size="10.00">_rate</text>
<text text-anchor="middle" x="145.5" y="-53" font-family="Helvetica,sans-Serif" font-size="10.00">first_name</text>
</g>
</g>
</svg>
