<?xml version="1.0" encoding="UTF-8" standalone="no"?>
<!DOCTYPE svg PUBLIC "-//W3C//DTD SVG 1.1//EN"
 "http://www.w3.org/Graphics/SVG/1.1/DTD/svg11.dtd">
<!-- Generated by graphviz version 2.36.0 (20140111.2315)
 -->
<!-- Title: monthly_summary.models.MonthlyReport.__str__ Pages: 1 -->
<svg width="384pt" height="136pt"
 viewBox="0.00 0.00 384.00 136.00" xmlns="http://www.w3.org/2000/svg" xmlns:xlink="http://www.w3.org/1999/xlink">
<g id="graph0" class="graph" transform="scale(1 1) rotate(0) translate(4 132)">
<title>monthly_summary.models.MonthlyReport.__str__</title>
<polygon fill="white" stroke="none" points="-4,4 -4,-132 380,-132 380,4 -4,4"/>
<!-- Node1 -->
<g id="node1" class="node"><title>Node1</title>
<polygon fill="#bfbfbf" stroke="black" points="0.5,-49 0.5,-79 169.5,-79 169.5,-49 0.5,-49"/>
<text text-anchor="start" x="8.5" y="-67" font-family="Helvetica,sans-Serif" font-size="10.00">monthly_summary.models.Monthly</text>
<text text-anchor="middle" x="85" y="-56" font-family="Helvetica,sans-Serif" font-size="10.00">Report.__str__</text>
</g>
<!-- Node2 -->
<g id="node2" class="node"><title>Node2</title>
<g id="a_node2"><a xlink:href="classmonthly__summary_1_1models_1_1MonthlyReport.html#aa654361d0392dadf061c41d608bb7bc5" target="_top" xlink:title="monthly_summary.models.Monthly\lReport.month">
<polygon fill="white" stroke="black" points="206.5,-98 206.5,-128 375.5,-128 375.5,-98 206.5,-98"/>
<text text-anchor="start" x="214.5" y="-116" font-family="Helvetica,sans-Serif" font-size="10.00">monthly_summary.models.Monthly</text>
<text text-anchor="middle" x="291" y="-105" font-family="Helvetica,sans-Serif" font-size="10.00">Report.month</text>
</a>
</g>
</g>
<!-- Node1&#45;&gt;Node2 -->
<g id="edge1" class="edge"><title>Node1&#45;&gt;Node2</title>
<path fill="none" stroke="midnightblue" d="M148.593,-79.0346C170.426,-84.2789 195.106,-90.2069 217.666,-95.6255"/>
<polygon fill="midnightblue" stroke="midnightblue" points="216.984,-99.0614 227.525,-97.9938 218.619,-92.255 216.984,-99.0614"/>
</g>
<!-- Node3 -->
<g id="node3" class="node"><title>Node3</title>
<g id="a_node3"><a xlink:href="classmonthly__summary_1_1models_1_1MonthlyReport.html#a592d408d37a11198e7b5a32fe9752cc2" target="_top" xlink:title="monthly_summary.models.Monthly\lReport.year">
<polygon fill="white" stroke="black" points="206.5,-49 206.5,-79 375.5,-79 375.5,-49 206.5,-49"/>
<text text-anchor="start" x="214.5" y="-67" font-family="Helvetica,sans-Serif" font-size="10.00">monthly_summary.models.Monthly</text>
<text text-anchor="middle" x="291" y="-56" font-family="Helvetica,sans-Serif" font-size="10.00">Report.year</text>
</a>
</g>
</g>
<!-- Node1&#45;&gt;Node3 -->
<g id="edge2" class="edge"><title>Node1&#45;&gt;Node3</title>
<path fill="none" stroke="midnightblue" d="M169.563,-64C178.263,-64 187.147,-64 195.953,-64"/>
<polygon fill="midnightblue" stroke="midnightblue" points="196.237,-67.5001 206.237,-64 196.237,-60.5001 196.237,-67.5001"/>
</g>
<!-- Node4 -->
<g id="node4" class="node"><title>Node4</title>
<g id="a_node4"><a xlink:href="classmonthly__summary_1_1models_1_1MonthlyReport.html#a55eb1279b668cacfb365e467b34f7320" target="_top" xlink:title="monthly_summary.models.Monthly\lReport.owner">
<polygon fill="white" stroke="black" points="206.5,-0 206.5,-30 375.5,-30 375.5,-0 206.5,-0"/>
<text text-anchor="start" x="214.5" y="-18" font-family="Helvetica,sans-Serif" font-size="10.00">monthly_summary.models.Monthly</text>
<text text-anchor="middle" x="291" y="-7" font-family="Helvetica,sans-Serif" font-size="10.00">Report.owner</text>
</a>
</g>
</g>
<!-- Node1&#45;&gt;Node4 -->
<g id="edge3" class="edge"><title>Node1&#45;&gt;Node4</title>
<path fill="none" stroke="midnightblue" d="M148.593,-48.9654C170.426,-43.7211 195.106,-37.7931 217.666,-32.3745"/>
<polygon fill="midnightblue" stroke="midnightblue" points="218.619,-35.745 227.525,-30.0062 216.984,-28.9386 218.619,-35.745"/>
</g>
</g>
</svg>
