<?xml version="1.0" encoding="UTF-8" standalone="no"?>
<!DOCTYPE svg PUBLIC "-//W3C//DTD SVG 1.1//EN"
 "http://www.w3.org/Graphics/SVG/1.1/DTD/svg11.dtd">
<!-- Generated by graphviz version 2.36.0 (20140111.2315)
 -->
<!-- Title: reservation_manager.views.ScrapeWyndham.getToPointsPage Pages: 1 -->
<svg width="870pt" height="38pt"
 viewBox="0.00 0.00 870.00 38.00" xmlns="http://www.w3.org/2000/svg" xmlns:xlink="http://www.w3.org/1999/xlink">
<g id="graph0" class="graph" transform="scale(1 1) rotate(0) translate(4 34)">
<title>reservation_manager.views.ScrapeWyndham.getToPointsPage</title>
<polygon fill="white" stroke="none" points="-4,4 -4,-34 866,-34 866,4 -4,4"/>
<!-- Node1 -->
<g id="node1" class="node"><title>Node1</title>
<polygon fill="#bfbfbf" stroke="black" points="0,-0 0,-30 170,-30 170,-0 0,-0"/>
<text text-anchor="start" x="8" y="-18" font-family="Helvetica,sans-Serif" font-size="10.00">reservation_manager.views.</text>
<text text-anchor="middle" x="85" y="-7" font-family="Helvetica,sans-Serif" font-size="10.00">ScrapeWyndham.getToPointsPage</text>
</g>
<!-- Node2 -->
<g id="node2" class="node"><title>Node2</title>
<g id="a_node2"><a xlink:href="classreservation__manager_1_1views_1_1ScrapeWyndham.html#a7712843a06596ae009dbe219d6725214" target="_top" xlink:title="reservation_manager.views.\lScrapeWyndham.parseConfirmationRow">
<polygon fill="white" stroke="black" points="206,-0 206,-30 400,-30 400,-0 206,-0"/>
<text text-anchor="start" x="214" y="-18" font-family="Helvetica,sans-Serif" font-size="10.00">reservation_manager.views.</text>
<text text-anchor="middle" x="303" y="-7" font-family="Helvetica,sans-Serif" font-size="10.00">ScrapeWyndham.parseConfirmationRow</text>
</a>
</g>
</g>
<!-- Node1&#45;&gt;Node2 -->
<g id="edge1" class="edge"><title>Node1&#45;&gt;Node2</title>
<path fill="none" stroke="midnightblue" d="M180.384,-15C188.849,-15 197.427,-15 205.905,-15"/>
<polygon fill="midnightblue" stroke="midnightblue" points="180.13,-11.5001 170.13,-15 180.13,-18.5001 180.13,-11.5001"/>
</g>
<!-- Node3 -->
<g id="node3" class="node"><title>Node3</title>
<g id="a_node3"><a xlink:href="classreservation__manager_1_1views_1_1ScrapeWyndham.html#ae214a263f7f81c6a692c94a37bf7c818" target="_top" xlink:title="reservation_manager.views.\lScrapeWyndham.parseConfirmationPage">
<polygon fill="white" stroke="black" points="436.5,-0 436.5,-30 633.5,-30 633.5,-0 436.5,-0"/>
<text text-anchor="start" x="444.5" y="-18" font-family="Helvetica,sans-Serif" font-size="10.00">reservation_manager.views.</text>
<text text-anchor="middle" x="535" y="-7" font-family="Helvetica,sans-Serif" font-size="10.00">ScrapeWyndham.parseConfirmationPage</text>
</a>
</g>
</g>
<!-- Node2&#45;&gt;Node3 -->
<g id="edge2" class="edge"><title>Node2&#45;&gt;Node3</title>
<path fill="none" stroke="midnightblue" d="M410.337,-15C419.001,-15 427.731,-15 436.329,-15"/>
<polygon fill="midnightblue" stroke="midnightblue" points="410.208,-11.5001 400.208,-15 410.208,-18.5001 410.208,-11.5001"/>
</g>
<!-- Node4 -->
<g id="node4" class="node"><title>Node4</title>
<g id="a_node4"><a xlink:href="classreservation__manager_1_1views_1_1ScrapeWyndham.html#a777bd0cf7eb79e7901b34697f7414d01" target="_top" xlink:title="reservation_manager.views.\lScrapeWyndham.getConfirmationPages">
<polygon fill="white" stroke="black" points="670.5,-0 670.5,-30 861.5,-30 861.5,-0 670.5,-0"/>
<text text-anchor="start" x="678.5" y="-18" font-family="Helvetica,sans-Serif" font-size="10.00">reservation_manager.views.</text>
<text text-anchor="middle" x="766" y="-7" font-family="Helvetica,sans-Serif" font-size="10.00">ScrapeWyndham.getConfirmationPages</text>
</a>
</g>
</g>
<!-- Node3&#45;&gt;Node4 -->
<g id="edge3" class="edge"><title>Node3&#45;&gt;Node4</title>
<path fill="none" stroke="midnightblue" d="M643.799,-15C652.703,-15 661.661,-15 670.457,-15"/>
<polygon fill="midnightblue" stroke="midnightblue" points="643.781,-11.5001 633.781,-15 643.781,-18.5001 643.781,-11.5001"/>
</g>
</g>
</svg>
