<?xml version="1.0" encoding="UTF-8" standalone="no"?>
<!DOCTYPE svg PUBLIC "-//W3C//DTD SVG 1.1//EN"
 "http://www.w3.org/Graphics/SVG/1.1/DTD/svg11.dtd">
<!-- Generated by graphviz version 2.36.0 (20140111.2315)
 -->
<!-- Title: monthly_summary.migrations.0001_initial.Migration Pages: 1 -->
<svg width="176pt" height="118pt"
 viewBox="0.00 0.00 176.00 118.00" xmlns="http://www.w3.org/2000/svg" xmlns:xlink="http://www.w3.org/1999/xlink">
<g id="graph0" class="graph" transform="scale(1 1) rotate(0) translate(4 114)">
<title>monthly_summary.migrations.0001_initial.Migration</title>
<polygon fill="white" stroke="none" points="-4,4 -4,-114 172,-114 172,4 -4,4"/>
<!-- Node1 -->
<g id="node1" class="node"><title>Node1</title>
<polygon fill="#bfbfbf" stroke="black" points="-0.5,-1 -0.5,-31 168.5,-31 168.5,-1 -0.5,-1"/>
<text text-anchor="start" x="7.5" y="-19" font-family="Helvetica,sans-Serif" font-size="10.00">monthly_summary.migrations.0001</text>
<text text-anchor="middle" x="84" y="-8" font-family="Helvetica,sans-Serif" font-size="10.00">_initial.Migration</text>
</g>
<!-- Node2 -->
<g id="node2" class="node"><title>Node2</title>
<polygon fill="white" stroke="#bfbfbf" points="26,-90.5 26,-109.5 82,-109.5 82,-90.5 26,-90.5"/>
<text text-anchor="middle" x="54" y="-97.5" font-family="Helvetica,sans-Serif" font-size="10.00">Migration</text>
</g>
<!-- Node2&#45;&gt;Node1 -->
<g id="edge1" class="edge"><title>Node2&#45;&gt;Node1</title>
<path fill="none" stroke="midnightblue" d="M60.7497,-80.5508C66.2182,-65.6037 73.8102,-44.8523 78.8108,-31.1839"/>
<polygon fill="midnightblue" stroke="midnightblue" points="57.3595,-79.6308 57.2105,-90.2246 63.9333,-82.0359 57.3595,-79.6308"/>
</g>
<!-- Node3 -->
<g id="node3" class="node"><title>Node3</title>
<polygon fill="white" stroke="#bfbfbf" points="99.5,-90.5 99.5,-109.5 128.5,-109.5 128.5,-90.5 99.5,-90.5"/>
<text text-anchor="middle" x="114" y="-97.5" font-family="Helvetica,sans-Serif" font-size="10.00">list</text>
</g>
<!-- Node3&#45;&gt;Node1 -->
<g id="edge2" class="edge"><title>Node3&#45;&gt;Node1</title>
<path fill="none" stroke="#9a32cd" stroke-dasharray="5,2" d="M107.25,-80.5508C101.782,-65.6037 94.1898,-44.8523 89.1892,-31.1839"/>
<polygon fill="#9a32cd" stroke="#9a32cd" points="104.067,-82.0359 110.789,-90.2246 110.641,-79.6308 104.067,-82.0359"/>
<text text-anchor="middle" x="133.5" y="-64" font-family="Helvetica,sans-Serif" font-size="10.00"> operations</text>
<text text-anchor="middle" x="133.5" y="-53" font-family="Helvetica,sans-Serif" font-size="10.00">dependencies</text>
</g>
</g>
</svg>
