<?xml version="1.0" encoding="UTF-8" standalone="no"?>
<!DOCTYPE svg PUBLIC "-//W3C//DTD SVG 1.1//EN"
 "http://www.w3.org/Graphics/SVG/1.1/DTD/svg11.dtd">
<!-- Generated by graphviz version 2.36.0 (20140111.2315)
 -->
<!-- Title: guest_reservation_manager.apps.GuestReservationManagerConfig Pages: 1 -->
<svg width="172pt" height="108pt"
 viewBox="0.00 0.00 172.00 108.00" xmlns="http://www.w3.org/2000/svg" xmlns:xlink="http://www.w3.org/1999/xlink">
<g id="graph0" class="graph" transform="scale(1 1) rotate(0) translate(4 104)">
<title>guest_reservation_manager.apps.GuestReservationManagerConfig</title>
<polygon fill="white" stroke="none" points="-4,4 -4,-104 168,-104 168,4 -4,4"/>
<!-- Node1 -->
<g id="node1" class="node"><title>Node1</title>
<polygon fill="#bfbfbf" stroke="black" points="0,-1 0,-31 164,-31 164,-1 0,-1"/>
<text text-anchor="start" x="8" y="-19" font-family="Helvetica,sans-Serif" font-size="10.00">guest_reservation_manager.apps.</text>
<text text-anchor="middle" x="82" y="-8" font-family="Helvetica,sans-Serif" font-size="10.00">GuestReservationManagerConfig</text>
</g>
<!-- Node2 -->
<g id="node2" class="node"><title>Node2</title>
<polygon fill="white" stroke="#bfbfbf" points="16,-80.5 16,-99.5 78,-99.5 78,-80.5 16,-80.5"/>
<text text-anchor="middle" x="47" y="-87.5" font-family="Helvetica,sans-Serif" font-size="10.00">AppConfig</text>
</g>
<!-- Node2&#45;&gt;Node1 -->
<g id="edge1" class="edge"><title>Node2&#45;&gt;Node1</title>
<path fill="none" stroke="midnightblue" d="M55.6509,-71.2038C61.6409,-58.8816 69.508,-42.6978 75.0819,-31.2316"/>
<polygon fill="midnightblue" stroke="midnightblue" points="52.3766,-69.934 51.1524,-80.4579 58.6722,-72.9944 52.3766,-69.934"/>
</g>
<!-- Node3 -->
<g id="node3" class="node"><title>Node3</title>
<polygon fill="white" stroke="#bfbfbf" points="96.5,-80.5 96.5,-99.5 137.5,-99.5 137.5,-80.5 96.5,-80.5"/>
<text text-anchor="middle" x="117" y="-87.5" font-family="Helvetica,sans-Serif" font-size="10.00">string</text>
</g>
<!-- Node3&#45;&gt;Node1 -->
<g id="edge2" class="edge"><title>Node3&#45;&gt;Node1</title>
<path fill="none" stroke="#9a32cd" stroke-dasharray="5,2" d="M108.349,-71.2038C102.359,-58.8816 94.492,-42.6978 88.9181,-31.2316"/>
<polygon fill="#9a32cd" stroke="#9a32cd" points="105.328,-72.9944 112.848,-80.4579 111.623,-69.934 105.328,-72.9944"/>
<text text-anchor="middle" x="118" y="-53.5" font-family="Helvetica,sans-Serif" font-size="10.00"> name</text>
</g>
</g>
</svg>
