<?xml version="1.0" encoding="UTF-8" standalone="no"?>
<!DOCTYPE svg PUBLIC "-//W3C//DTD SVG 1.1//EN"
 "http://www.w3.org/Graphics/SVG/1.1/DTD/svg11.dtd">
<!-- Generated by graphviz version 2.36.0 (20140111.2315)
 -->
<!-- Title: owners_point_manager.models.OwnerPointsManagerApplicationSettings Pages: 1 -->
<svg width="200pt" height="108pt"
 viewBox="0.00 0.00 200.00 108.00" xmlns="http://www.w3.org/2000/svg" xmlns:xlink="http://www.w3.org/1999/xlink">
<g id="graph0" class="graph" transform="scale(1 1) rotate(0) translate(4 104)">
<title>owners_point_manager.models.OwnerPointsManagerApplicationSettings</title>
<polygon fill="white" stroke="none" points="-4,4 -4,-104 196,-104 196,4 -4,4"/>
<!-- Node1 -->
<g id="node1" class="node"><title>Node1</title>
<polygon fill="#bfbfbf" stroke="black" points="-1,-1 -1,-31 193,-31 193,-1 -1,-1"/>
<text text-anchor="start" x="7" y="-19" font-family="Helvetica,sans-Serif" font-size="10.00">owners_point_manager.models.</text>
<text text-anchor="middle" x="96" y="-8" font-family="Helvetica,sans-Serif" font-size="10.00">OwnerPointsManagerApplicationSettings</text>
</g>
<!-- Node2 -->
<g id="node2" class="node"><title>Node2</title>
<polygon fill="white" stroke="#bfbfbf" points="45.5,-80.5 45.5,-99.5 88.5,-99.5 88.5,-80.5 45.5,-80.5"/>
<text text-anchor="middle" x="67" y="-87.5" font-family="Helvetica,sans-Serif" font-size="10.00">Model</text>
</g>
<!-- Node2&#45;&gt;Node1 -->
<g id="edge1" class="edge"><title>Node2&#45;&gt;Node1</title>
<path fill="none" stroke="midnightblue" d="M74.3173,-70.833C79.2612,-58.5584 85.6957,-42.5832 90.2678,-31.2316"/>
<polygon fill="midnightblue" stroke="midnightblue" points="70.9302,-69.8744 70.4406,-80.4579 77.4233,-72.4897 70.9302,-69.8744"/>
</g>
<!-- Node3 -->
<g id="node3" class="node"><title>Node3</title>
<polygon fill="white" stroke="#bfbfbf" points="107,-80.5 107,-99.5 145,-99.5 145,-80.5 107,-80.5"/>
<text text-anchor="middle" x="126" y="-87.5" font-family="Helvetica,sans-Serif" font-size="10.00">tuple</text>
</g>
<!-- Node3&#45;&gt;Node1 -->
<g id="edge2" class="edge"><title>Node3&#45;&gt;Node1</title>
<path fill="none" stroke="#9a32cd" stroke-dasharray="5,2" d="M118.585,-71.2038C113.451,-58.8816 106.707,-42.6978 101.93,-31.2316"/>
<polygon fill="#9a32cd" stroke="#9a32cd" points="115.364,-72.5733 122.441,-80.4579 121.825,-69.881 115.364,-72.5733"/>
<text text-anchor="middle" x="144.5" y="-53.5" font-family="Helvetica,sans-Serif" font-size="10.00"> last_updated</text>
</g>
</g>
</svg>
