<?xml version="1.0" encoding="UTF-8" standalone="no"?>
<!DOCTYPE svg PUBLIC "-//W3C//DTD SVG 1.1//EN"
 "http://www.w3.org/Graphics/SVG/1.1/DTD/svg11.dtd">
<!-- Generated by graphviz version 2.36.0 (20140111.2315)
 -->
<!-- Title: owners_point_manager.migrations.0001_initial.Migration Pages: 1 -->
<svg width="198pt" height="118pt"
 viewBox="0.00 0.00 198.00 118.00" xmlns="http://www.w3.org/2000/svg" xmlns:xlink="http://www.w3.org/1999/xlink">
<g id="graph0" class="graph" transform="scale(1 1) rotate(0) translate(4 114)">
<title>owners_point_manager.migrations.0001_initial.Migration</title>
<polygon fill="white" stroke="none" points="-4,4 -4,-114 194,-114 194,4 -4,4"/>
<!-- Node1 -->
<g id="node1" class="node"><title>Node1</title>
<polygon fill="#bfbfbf" stroke="black" points="1.5,-1 1.5,-31 190.5,-31 190.5,-1 1.5,-1"/>
<text text-anchor="start" x="9.5" y="-19" font-family="Helvetica,sans-Serif" font-size="10.00">owners_point_manager.migrations.0001</text>
<text text-anchor="middle" x="96" y="-8" font-family="Helvetica,sans-Serif" font-size="10.00">_initial.Migration</text>
</g>
<!-- Node2 -->
<g id="node2" class="node"><title>Node2</title>
<polygon fill="white" stroke="#bfbfbf" points="-0.5,-90.5 -0.5,-109.5 106.5,-109.5 106.5,-90.5 -0.5,-90.5"/>
<text text-anchor="middle" x="53" y="-97.5" font-family="Helvetica,sans-Serif" font-size="10.00">migrations::Migration</text>
</g>
<!-- Node2&#45;&gt;Node1 -->
<g id="edge1" class="edge"><title>Node2&#45;&gt;Node1</title>
<path fill="none" stroke="midnightblue" d="M62.4471,-80.9845C70.301,-66.0073 81.325,-44.985 88.5621,-31.1839"/>
<polygon fill="midnightblue" stroke="midnightblue" points="59.1462,-79.7429 57.6018,-90.2246 65.3456,-82.9938 59.1462,-79.7429"/>
</g>
<!-- Node3 -->
<g id="node3" class="node"><title>Node3</title>
<polygon fill="white" stroke="#bfbfbf" points="124.5,-90.5 124.5,-109.5 153.5,-109.5 153.5,-90.5 124.5,-90.5"/>
<text text-anchor="middle" x="139" y="-97.5" font-family="Helvetica,sans-Serif" font-size="10.00">list</text>
</g>
<!-- Node3&#45;&gt;Node1 -->
<g id="edge2" class="edge"><title>Node3&#45;&gt;Node1</title>
<path fill="none" stroke="#9a32cd" stroke-dasharray="5,2" d="M129.553,-80.9845C121.699,-66.0073 110.675,-44.985 103.438,-31.1839"/>
<polygon fill="#9a32cd" stroke="#9a32cd" points="126.654,-82.9938 134.398,-90.2246 132.854,-79.7429 126.654,-82.9938"/>
<text text-anchor="middle" x="154.5" y="-64" font-family="Helvetica,sans-Serif" font-size="10.00"> operations</text>
<text text-anchor="middle" x="154.5" y="-53" font-family="Helvetica,sans-Serif" font-size="10.00">dependencies</text>
</g>
</g>
</svg>
