<?xml version="1.0" encoding="UTF-8" standalone="no"?>
<!DOCTYPE svg PUBLIC "-//W3C//DTD SVG 1.1//EN"
 "http://www.w3.org/Graphics/SVG/1.1/DTD/svg11.dtd">
<!-- Generated by graphviz version 2.36.0 (20140111.2315)
 -->
<!-- Title: monthly_summary.models.MonthlyReport Pages: 1 -->
<svg width="178pt" height="130pt"
 viewBox="0.00 0.00 178.00 130.00" xmlns="http://www.w3.org/2000/svg" xmlns:xlink="http://www.w3.org/1999/xlink">
<g id="graph0" class="graph" transform="scale(1 1) rotate(0) translate(4 126)">
<title>monthly_summary.models.MonthlyReport</title>
<polygon fill="white" stroke="none" points="-4,4 -4,-126 174,-126 174,4 -4,4"/>
<!-- Node1 -->
<g id="node1" class="node"><title>Node1</title>
<polygon fill="#bfbfbf" stroke="black" points="-0.5,-1 -0.5,-31 168.5,-31 168.5,-1 -0.5,-1"/>
<text text-anchor="start" x="7.5" y="-19" font-family="Helvetica,sans-Serif" font-size="10.00">monthly_summary.models.Monthly</text>
<text text-anchor="middle" x="84" y="-8" font-family="Helvetica,sans-Serif" font-size="10.00">Report</text>
</g>
<!-- Node2 -->
<g id="node2" class="node"><title>Node2</title>
<polygon fill="white" stroke="#bfbfbf" points="33.5,-102.5 33.5,-121.5 76.5,-121.5 76.5,-102.5 33.5,-102.5"/>
<text text-anchor="middle" x="55" y="-109.5" font-family="Helvetica,sans-Serif" font-size="10.00">Model</text>
</g>
<!-- Node2&#45;&gt;Node1 -->
<g id="edge1" class="edge"><title>Node2&#45;&gt;Node1</title>
<path fill="none" stroke="midnightblue" d="M60.6505,-92.6845C66.2127,-74.6555 74.5879,-47.5082 79.6506,-31.0982"/>
<polygon fill="midnightblue" stroke="midnightblue" points="57.2799,-91.7378 57.6763,-102.325 63.9688,-93.8014 57.2799,-91.7378"/>
</g>
<!-- Node3 -->
<g id="node3" class="node"><title>Node3</title>
<polygon fill="white" stroke="#bfbfbf" points="95,-102.5 95,-121.5 133,-121.5 133,-102.5 95,-102.5"/>
<text text-anchor="middle" x="114" y="-109.5" font-family="Helvetica,sans-Serif" font-size="10.00">tuple</text>
</g>
<!-- Node3&#45;&gt;Node1 -->
<g id="edge2" class="edge"><title>Node3&#45;&gt;Node1</title>
<path fill="none" stroke="#9a32cd" stroke-dasharray="5,2" d="M108.155,-92.6845C102.401,-74.6555 93.7367,-47.5082 88.4994,-31.0982"/>
<polygon fill="#9a32cd" stroke="#9a32cd" points="104.857,-93.8628 111.231,-102.325 111.525,-91.7344 104.857,-93.8628"/>
<text text-anchor="middle" x="138" y="-75.5" font-family="Helvetica,sans-Serif" font-size="10.00"> amount_paid</text>
<text text-anchor="middle" x="138" y="-64.5" font-family="Helvetica,sans-Serif" font-size="10.00">date_paid</text>
<text text-anchor="middle" x="138" y="-53.5" font-family="Helvetica,sans-Serif" font-size="10.00">check_number</text>
</g>
</g>
</svg>
