<?xml version="1.0" encoding="UTF-8" standalone="no"?>
<!DOCTYPE svg PUBLIC "-//W3C//DTD SVG 1.1//EN"
 "http://www.w3.org/Graphics/SVG/1.1/DTD/svg11.dtd">
<!-- Generated by graphviz version 2.36.0 (20140111.2315)
 -->
<!-- Title: db_manager.views.DBManager.viewUpdates Pages: 1 -->
<svg width="566pt" height="52pt"
 viewBox="0.00 0.00 566.00 52.00" xmlns="http://www.w3.org/2000/svg" xmlns:xlink="http://www.w3.org/1999/xlink">
<g id="graph0" class="graph" transform="scale(1 1) rotate(0) translate(4 48)">
<title>db_manager.views.DBManager.viewUpdates</title>
<polygon fill="white" stroke="none" points="-4,4 -4,-48 562,-48 562,4 -4,4"/>
<!-- Node1 -->
<g id="node1" class="node"><title>Node1</title>
<polygon fill="#bfbfbf" stroke="black" points="0,-14 0,-44 176,-44 176,-14 0,-14"/>
<text text-anchor="start" x="8" y="-32" font-family="Helvetica,sans-Serif" font-size="10.00">db_manager.views.DBManager.view</text>
<text text-anchor="middle" x="88" y="-21" font-family="Helvetica,sans-Serif" font-size="10.00">Updates</text>
</g>
<!-- Node2 -->
<g id="node2" class="node"><title>Node2</title>
<g id="a_node2"><a xlink:href="namespacepush__backup.html#a41c63d89ed94411061dbcfe0572c3482" target="_top" xlink:title="push_backup.getDateFolderName">
<polygon fill="white" stroke="black" points="392.5,-19.5 392.5,-38.5 557.5,-38.5 557.5,-19.5 392.5,-19.5"/>
<text text-anchor="middle" x="475" y="-26.5" font-family="Helvetica,sans-Serif" font-size="10.00">push_backup.getDateFolderName</text>
</a>
</g>
</g>
<!-- Node1&#45;&gt;Node2 -->
<g id="edge1" class="edge"><title>Node1&#45;&gt;Node2</title>
<path fill="none" stroke="midnightblue" d="M176.362,-29C237.729,-29 319.658,-29 382.022,-29"/>
<polygon fill="midnightblue" stroke="midnightblue" points="382.248,-32.5001 392.248,-29 382.248,-25.5001 382.248,-32.5001"/>
</g>
<!-- Node3 -->
<g id="node3" class="node"><title>Node3</title>
<g id="a_node3"><a xlink:href="namespacepush__backup.html#aae407dbc87a64b7a649c305dfc218787" target="_top" xlink:title="push_backup.getBackupPath">
<polygon fill="white" stroke="black" points="212,-0.5 212,-19.5 356,-19.5 356,-0.5 212,-0.5"/>
<text text-anchor="middle" x="284" y="-7.5" font-family="Helvetica,sans-Serif" font-size="10.00">push_backup.getBackupPath</text>
</a>
</g>
</g>
<!-- Node1&#45;&gt;Node3 -->
<g id="edge2" class="edge"><title>Node1&#45;&gt;Node3</title>
<path fill="none" stroke="midnightblue" d="M176.069,-20.4726C184.591,-19.638 193.216,-18.7933 201.678,-17.9645"/>
<polygon fill="midnightblue" stroke="midnightblue" points="202.289,-21.4215 211.9,-16.9634 201.607,-14.4549 202.289,-21.4215"/>
</g>
<!-- Node3&#45;&gt;Node2 -->
<g id="edge3" class="edge"><title>Node3&#45;&gt;Node2</title>
<path fill="none" stroke="midnightblue" d="M356.183,-17.156C364.682,-18.0104 373.449,-18.8917 382.186,-19.77"/>
<polygon fill="midnightblue" stroke="midnightblue" points="382.11,-23.2799 392.41,-20.7978 382.81,-16.315 382.11,-23.2799"/>
</g>
</g>
</svg>
