<?xml version="1.0" encoding="UTF-8" standalone="no"?>
<!DOCTYPE svg PUBLIC "-//W3C//DTD SVG 1.1//EN"
 "http://www.w3.org/Graphics/SVG/1.1/DTD/svg11.dtd">
<!-- Generated by graphviz version 2.36.0 (20140111.2315)
 -->
<!-- Title: owners_point_manager.models.Owners_Points_Status Pages: 1 -->
<svg width="224pt" height="162pt"
 viewBox="0.00 0.00 224.00 162.00" xmlns="http://www.w3.org/2000/svg" xmlns:xlink="http://www.w3.org/1999/xlink">
<g id="graph0" class="graph" transform="scale(1 1) rotate(0) translate(4 158)">
<title>owners_point_manager.models.Owners_Points_Status</title>
<polygon fill="white" stroke="none" points="-4,4 -4,-158 220,-158 220,4 -4,4"/>
<!-- Node1 -->
<g id="node1" class="node"><title>Node1</title>
<polygon fill="#bfbfbf" stroke="black" points="0.5,-1 0.5,-31 155.5,-31 155.5,-1 0.5,-1"/>
<text text-anchor="start" x="8.5" y="-19" font-family="Helvetica,sans-Serif" font-size="10.00">owners_point_manager.models.</text>
<text text-anchor="middle" x="78" y="-8" font-family="Helvetica,sans-Serif" font-size="10.00">Owners_Points_Status</text>
</g>
<!-- Node2 -->
<g id="node2" class="node"><title>Node2</title>
<polygon fill="white" stroke="#bfbfbf" points="0,-134.5 0,-153.5 80,-153.5 80,-134.5 0,-134.5"/>
<text text-anchor="middle" x="40" y="-141.5" font-family="Helvetica,sans-Serif" font-size="10.00">models::Model</text>
</g>
<!-- Node2&#45;&gt;Node1 -->
<g id="edge1" class="edge"><title>Node2&#45;&gt;Node1</title>
<path fill="none" stroke="midnightblue" d="M45.5721,-124.524C53.2075,-99.2068 66.7608,-54.2668 73.6779,-31.3311"/>
<polygon fill="midnightblue" stroke="midnightblue" points="42.1485,-123.755 42.6119,-134.34 48.8503,-125.776 42.1485,-123.755"/>
</g>
<!-- Node3 -->
<g id="node3" class="node"><title>Node3</title>
<polygon fill="white" stroke="#bfbfbf" points="98,-134.5 98,-153.5 136,-153.5 136,-134.5 98,-134.5"/>
<text text-anchor="middle" x="117" y="-141.5" font-family="Helvetica,sans-Serif" font-size="10.00">tuple</text>
</g>
<!-- Node3&#45;&gt;Node1 -->
<g id="edge2" class="edge"><title>Node3&#45;&gt;Node1</title>
<path fill="none" stroke="#9a32cd" stroke-dasharray="5,2" d="M111.281,-124.524C103.445,-99.2068 89.535,-54.2668 82.4358,-31.3311"/>
<polygon fill="#9a32cd" stroke="#9a32cd" points="108.019,-125.822 114.319,-134.34 114.706,-123.752 108.019,-125.822"/>
<text text-anchor="middle" x="162" y="-108" font-family="Helvetica,sans-Serif" font-size="10.00"> Points_Available</text>
<text text-anchor="middle" x="162" y="-97" font-family="Helvetica,sans-Serif" font-size="10.00">Points_Description</text>
<text text-anchor="middle" x="162" y="-86" font-family="Helvetica,sans-Serif" font-size="10.00">fk_owner</text>
<text text-anchor="middle" x="162" y="-75" font-family="Helvetica,sans-Serif" font-size="10.00">Expiration</text>
<text text-anchor="middle" x="162" y="-64" font-family="Helvetica,sans-Serif" font-size="10.00">Housekeeping_Available</text>
<text text-anchor="middle" x="162" y="-53" font-family="Helvetica,sans-Serif" font-size="10.00">Travel_From</text>
</g>
</g>
</svg>
