<?xml version="1.0" encoding="UTF-8" standalone="no"?>
<!DOCTYPE svg PUBLIC "-//W3C//DTD SVG 1.1//EN"
 "http://www.w3.org/Graphics/SVG/1.1/DTD/svg11.dtd">
<!-- Generated by graphviz version 2.36.0 (20140111.2315)
 -->
<!-- Title: reservation_manager.views.ScrapeWyndham.getConfirmationPages Pages: 1 -->
<!--zoomable 136 -->
<svg id="main" version="1.1" xmlns="http://www.w3.org/2000/svg" xmlns:xlink="http://www.w3.org/1999/xlink" xml:space="preserve" onload="init(evt)">
<style type="text/css"><![CDATA[
.edge:hover path { stroke: red; }
.edge:hover polygon { stroke: red; fill: red; }
]]></style>
<script type="text/javascript"><![CDATA[
var edges = document.getElementsByTagName('g');
if (edges && edges.length) {
  for (var i=0;i<edges.length;i++) {
    if (edges[i].id.substr(0,4)=='edge') {
      edges[i].setAttribute('class','edge');
    }
  }
}
]]></script>
        <defs>
                <circle id="rim" cx="0" cy="0" r="7"/>
                <circle id="rim2" cx="0" cy="0" r="3.5"/>
                <g id="zoomPlus">
                        <use xlink:href="#rim" fill="#404040">
                                <set attributeName="fill" to="#808080" begin="zoomplus.mouseover" end="zoomplus.mouseout"/>
                        </use>
                        <path d="M-4,0h8M0,-4v8" fill="none" stroke="white" stroke-width="1.5" pointer-events="none"/>
                </g>
                <g id="zoomMin">
                        <use xlink:href="#rim" fill="#404040">
                                <set attributeName="fill" to="#808080" begin="zoomminus.mouseover" end="zoomminus.mouseout"/>
                        </use>
                        <path d="M-4,0h8" fill="none" stroke="white" stroke-width="1.5" pointer-events="none"/>
                </g>
                <g id="dirArrow">
                        <path fill="none" stroke="white" stroke-width="1.5" d="M0,-3.0v7 M-2.5,-0.5L0,-3.0L2.5,-0.5"/>
                </g>
               <g id="resetDef">
                       <use xlink:href="#rim2" fill="#404040">
                               <set attributeName="fill" to="#808080" begin="reset.mouseover" end="reset.mouseout"/>
                       </use>
               </g>
        </defs>

<script type="text/javascript">
var viewWidth = 1076;
var viewHeight = 136;
var sectionId = 'dynsection-0';
</script>
<script xlink:href="svgpan.js"/>
<svg id="graph" class="graph">
<g id="viewport">
<title>reservation_manager.views.ScrapeWyndham.getConfirmationPages</title>
<polygon fill="white" stroke="none" points="-4,4 -4,-132 1072,-132 1072,4 -4,4"/>
<!-- Node1 -->
<g id="node1" class="node"><title>Node1</title>
<polygon fill="#bfbfbf" stroke="black" points="0.5,-49 0.5,-79 191.5,-79 191.5,-49 0.5,-49"/>
<text text-anchor="start" x="8.5" y="-67" font-family="Helvetica,sans-Serif" font-size="10.00">reservation_manager.views.</text>
<text text-anchor="middle" x="96" y="-56" font-family="Helvetica,sans-Serif" font-size="10.00">ScrapeWyndham.getConfirmationPages</text>
</g>
<!-- Node2 -->
<g id="node2" class="node"><title>Node2</title>
<g id="a_node2"><a xlink:href="classreservation__manager_1_1views_1_1ScrapeWyndham.html#ae214a263f7f81c6a692c94a37bf7c818" target="_top" xlink:title="reservation_manager.views.\lScrapeWyndham.parseConfirmationPage">
<polygon fill="white" stroke="black" points="228.5,-49 228.5,-79 425.5,-79 425.5,-49 228.5,-49"/>
<text text-anchor="start" x="236.5" y="-67" font-family="Helvetica,sans-Serif" font-size="10.00">reservation_manager.views.</text>
<text text-anchor="middle" x="327" y="-56" font-family="Helvetica,sans-Serif" font-size="10.00">ScrapeWyndham.parseConfirmationPage</text>
</a>
</g>
</g>
<!-- Node1&#45;&gt;Node2 -->
<g id="edge1" class="edge"><title>Node1&#45;&gt;Node2</title>
<path fill="none" stroke="midnightblue" d="M191.796,-64C200.463,-64 209.285,-64 218.056,-64"/>
<polygon fill="midnightblue" stroke="midnightblue" points="218.317,-67.5001 228.316,-64 218.316,-60.5001 218.317,-67.5001"/>
</g>
<!-- Node3 -->
<g id="node3" class="node"><title>Node3</title>
<g id="a_node3"><a xlink:href="classreservation__manager_1_1views_1_1ScrapeWyndham.html#a7712843a06596ae009dbe219d6725214" target="_top" xlink:title="reservation_manager.views.\lScrapeWyndham.parseConfirmationRow">
<polygon fill="white" stroke="black" points="462,-49 462,-79 656,-79 656,-49 462,-49"/>
<text text-anchor="start" x="470" y="-67" font-family="Helvetica,sans-Serif" font-size="10.00">reservation_manager.views.</text>
<text text-anchor="middle" x="559" y="-56" font-family="Helvetica,sans-Serif" font-size="10.00">ScrapeWyndham.parseConfirmationRow</text>
</a>
</g>
</g>
<!-- Node2&#45;&gt;Node3 -->
<g id="edge2" class="edge"><title>Node2&#45;&gt;Node3</title>
<path fill="none" stroke="midnightblue" d="M425.541,-64C434.165,-64 442.923,-64 451.615,-64"/>
<polygon fill="midnightblue" stroke="midnightblue" points="451.776,-67.5001 461.776,-64 451.776,-60.5001 451.776,-67.5001"/>
</g>
<!-- Node4 -->
<g id="node4" class="node"><title>Node4</title>
<g id="a_node4"><a xlink:href="classowners__point__manager_1_1views_1_1ScrapeWyndham.html#aa0a734a6401d08811119bbb5dfd98327" target="_top" xlink:title="owners_point_manager.views.\lScrapeWyndham.reformatDate">
<polygon fill="white" stroke="black" points="701,-98 701,-128 853,-128 853,-98 701,-98"/>
<text text-anchor="start" x="709" y="-116" font-family="Helvetica,sans-Serif" font-size="10.00">owners_point_manager.views.</text>
<text text-anchor="middle" x="777" y="-105" font-family="Helvetica,sans-Serif" font-size="10.00">ScrapeWyndham.reformatDate</text>
</a>
</g>
</g>
<!-- Node3&#45;&gt;Node4 -->
<g id="edge3" class="edge"><title>Node3&#45;&gt;Node4</title>
<path fill="none" stroke="midnightblue" d="M626.275,-79.0346C649.6,-84.3259 675.993,-90.3133 700.053,-95.7712"/>
<polygon fill="midnightblue" stroke="midnightblue" points="699.324,-99.1947 709.85,-97.9938 700.872,-92.3682 699.324,-99.1947"/>
</g>
<!-- Node5 -->
<g id="node5" class="node"><title>Node5</title>
<g id="a_node5"><a xlink:href="classreservation__manager_1_1views_1_1ScrapeWyndham.html#abd8c3dd2bad2ab05e01312138b10fcc9" target="_top" xlink:title="reservation_manager.views.\lScrapeWyndham.reformatDate">
<polygon fill="white" stroke="black" points="701,-49 701,-79 853,-79 853,-49 701,-49"/>
<text text-anchor="start" x="709" y="-67" font-family="Helvetica,sans-Serif" font-size="10.00">reservation_manager.views.</text>
<text text-anchor="middle" x="777" y="-56" font-family="Helvetica,sans-Serif" font-size="10.00">ScrapeWyndham.reformatDate</text>
</a>
</g>
</g>
<!-- Node3&#45;&gt;Node5 -->
<g id="edge4" class="edge"><title>Node3&#45;&gt;Node5</title>
<path fill="none" stroke="midnightblue" d="M656.313,-64C667.769,-64 679.402,-64 690.689,-64"/>
<polygon fill="midnightblue" stroke="midnightblue" points="690.942,-67.5001 700.942,-64 690.942,-60.5001 690.942,-67.5001"/>
</g>
<!-- Node6 -->
<g id="node6" class="node"><title>Node6</title>
<g id="a_node6"><a xlink:href="classreservation__manager_1_1views_1_1ScrapeWyndham.html#a2ec515f19139d7640bd548a99f6566b6" target="_top" xlink:title="reservation_manager.views.\lScrapeWyndham.getToPointsPage">
<polygon fill="white" stroke="black" points="692,-0 692,-30 862,-30 862,-0 692,-0"/>
<text text-anchor="start" x="700" y="-18" font-family="Helvetica,sans-Serif" font-size="10.00">reservation_manager.views.</text>
<text text-anchor="middle" x="777" y="-7" font-family="Helvetica,sans-Serif" font-size="10.00">ScrapeWyndham.getToPointsPage</text>
</a>
</g>
</g>
<!-- Node3&#45;&gt;Node6 -->
<g id="edge5" class="edge"><title>Node3&#45;&gt;Node6</title>
<path fill="none" stroke="midnightblue" d="M626.275,-48.9654C649.6,-43.6741 675.993,-37.6867 700.053,-32.2288"/>
<polygon fill="midnightblue" stroke="midnightblue" points="700.872,-35.6318 709.85,-30.0062 699.324,-28.8053 700.872,-35.6318"/>
</g>
<!-- Node7 -->
<g id="node7" class="node"><title>Node7</title>
<g id="a_node7"><a xlink:href="classreservation__manager_1_1views_1_1ScrapeWyndham.html#a2c3b857634800266a0fffc9b93d4e3db" target="_top" xlink:title="reservation_manager.views.\lScrapeWyndham.parsePointsPage">
<polygon fill="white" stroke="black" points="898.5,-0 898.5,-30 1067.5,-30 1067.5,-0 898.5,-0"/>
<text text-anchor="start" x="906.5" y="-18" font-family="Helvetica,sans-Serif" font-size="10.00">reservation_manager.views.</text>
<text text-anchor="middle" x="983" y="-7" font-family="Helvetica,sans-Serif" font-size="10.00">ScrapeWyndham.parsePointsPage</text>
</a>
</g>
</g>
<!-- Node6&#45;&gt;Node7 -->
<g id="edge6" class="edge"><title>Node6&#45;&gt;Node7</title>
<path fill="none" stroke="midnightblue" d="M862.152,-15C870.751,-15 879.524,-15 888.217,-15"/>
<polygon fill="midnightblue" stroke="midnightblue" points="888.37,-18.5001 898.37,-15 888.37,-11.5001 888.37,-18.5001"/>
</g>
</g>
</svg>
        <g id="navigator" transform="translate(0 0)" fill="#404254">
                <rect fill="#f2f5e9" fill-opacity="0.5" stroke="#606060" stroke-width=".5" x="0" y="0" width="60" height="60"/>
                <use id="zoomplus" xlink:href="#zoomPlus" x="17" y="9" onmousedown="handleZoom(evt,'in')"/>
                <use id="zoomminus" xlink:href="#zoomMin" x="42" y="9" onmousedown="handleZoom(evt,'out')"/>
                <use id="reset" xlink:href="#resetDef" x="30" y="36" onmousedown="handleReset()"/>
                <g id="arrowUp" xlink:href="#dirArrow" transform="translate(30 24)" onmousedown="handlePan(0,-1)">
                  <use xlink:href="#rim" fill="#404040">
                        <set attributeName="fill" to="#808080" begin="arrowUp.mouseover" end="arrowUp.mouseout"/>
                  </use>
                  <path fill="none" stroke="white" stroke-width="1.5" d="M0,-3.0v7 M-2.5,-0.5L0,-3.0L2.5,-0.5"/>
                </g>
                <g id="arrowRight" xlink:href="#dirArrow" transform="rotate(90) translate(36 -43)" onmousedown="handlePan(1,0)">
                  <use xlink:href="#rim" fill="#404040">
                        <set attributeName="fill" to="#808080" begin="arrowRight.mouseover" end="arrowRight.mouseout"/>
                  </use>
                  <path fill="none" stroke="white" stroke-width="1.5" d="M0,-3.0v7 M-2.5,-0.5L0,-3.0L2.5,-0.5"/>
                </g>
                <g id="arrowDown" xlink:href="#dirArrow" transform="rotate(180) translate(-30 -48)" onmousedown="handlePan(0,1)">
                  <use xlink:href="#rim" fill="#404040">
                        <set attributeName="fill" to="#808080" begin="arrowDown.mouseover" end="arrowDown.mouseout"/>
                  </use>
                  <path fill="none" stroke="white" stroke-width="1.5" d="M0,-3.0v7 M-2.5,-0.5L0,-3.0L2.5,-0.5"/>
                </g>
                <g id="arrowLeft" xlink:href="#dirArrow" transform="rotate(270) translate(-36 17)" onmousedown="handlePan(-1,0)">
                  <use xlink:href="#rim" fill="#404040">
                        <set attributeName="fill" to="#808080" begin="arrowLeft.mouseover" end="arrowLeft.mouseout"/>
                  </use>
                  <path fill="none" stroke="white" stroke-width="1.5" d="M0,-3.0v7 M-2.5,-0.5L0,-3.0L2.5,-0.5"/>
                </g>
        </g>
        <svg viewBox="0 0 15 15" width="100%" height="30px" preserveAspectRatio="xMaxYMin meet">
         <g id="arrow_out" transform="scale(0.3 0.3)">
          <a xlink:href="classreservation__manager_1_1views_1_1ScrapeWyndham_a777bd0cf7eb79e7901b34697f7414d01_cgraph_org.svg" target="_base">
           <rect id="button" ry="5" rx="5" y="6" x="6" height="38" width="38"
                fill="#f2f5e9" fill-opacity="0.5" stroke="#606060" stroke-width="1.0"/>
           <path id="arrow"
             d="M 11.500037,31.436501 C 11.940474,20.09759 22.043105,11.32322 32.158766,21.979434 L 37.068811,17.246167 C 37.068811,17.246167 37.088388,32 37.088388,32 L 22.160133,31.978069 C 22.160133,31.978069 26.997745,27.140456 26.997745,27.140456 C 18.528582,18.264221 13.291696,25.230495 11.500037,31.436501 z"
             style="fill:#404040;"/>
          </a>
         </g>
        </svg>
</svg>
