<?xml version="1.0" encoding="UTF-8" standalone="no"?>
<!DOCTYPE svg PUBLIC "-//W3C//DTD SVG 1.1//EN"
 "http://www.w3.org/Graphics/SVG/1.1/DTD/svg11.dtd">
<!-- Generated by graphviz version 2.36.0 (20140111.2315)
 -->
<!-- Title: reservation_manager.views.ScrapeWyndham.getConfirmationPages Pages: 1 -->
<svg width="1076pt" height="136pt"
 viewBox="0.00 0.00 1076.00 136.00" xmlns="http://www.w3.org/2000/svg" xmlns:xlink="http://www.w3.org/1999/xlink">
<g id="graph0" class="graph" transform="scale(1 1) rotate(0) translate(4 132)">
<title>reservation_manager.views.ScrapeWyndham.getConfirmationPages</title>
<polygon fill="white" stroke="none" points="-4,4 -4,-132 1072,-132 1072,4 -4,4"/>
<!-- Node1 -->
<g id="node1" class="node"><title>Node1</title>
<polygon fill="#bfbfbf" stroke="black" points="0.5,-49 0.5,-79 191.5,-79 191.5,-49 0.5,-49"/>
<text text-anchor="start" x="8.5" y="-67" font-family="Helvetica,sans-Serif" font-size="10.00">reservation_manager.views.</text>
<text text-anchor="middle" x="96" y="-56" font-family="Helvetica,sans-Serif" font-size="10.00">ScrapeWyndham.getConfirmationPages</text>
</g>
<!-- Node2 -->
<g id="node2" class="node"><title>Node2</title>
<g id="a_node2"><a xlink:href="classreservation__manager_1_1views_1_1ScrapeWyndham.html#ae214a263f7f81c6a692c94a37bf7c818" target="_top" xlink:title="reservation_manager.views.\lScrapeWyndham.parseConfirmationPage">
<polygon fill="white" stroke="black" points="228.5,-49 228.5,-79 425.5,-79 425.5,-49 228.5,-49"/>
<text text-anchor="start" x="236.5" y="-67" font-family="Helvetica,sans-Serif" font-size="10.00">reservation_manager.views.</text>
<text text-anchor="middle" x="327" y="-56" font-family="Helvetica,sans-Serif" font-size="10.00">ScrapeWyndham.parseConfirmationPage</text>
</a>
</g>
</g>
<!-- Node1&#45;&gt;Node2 -->
<g id="edge1" class="edge"><title>Node1&#45;&gt;Node2</title>
<path fill="none" stroke="midnightblue" d="M191.796,-64C200.463,-64 209.285,-64 218.056,-64"/>
<polygon fill="midnightblue" stroke="midnightblue" points="218.317,-67.5001 228.316,-64 218.316,-60.5001 218.317,-67.5001"/>
</g>
<!-- Node3 -->
<g id="node3" class="node"><title>Node3</title>
<g id="a_node3"><a xlink:href="classreservation__manager_1_1views_1_1ScrapeWyndham.html#a7712843a06596ae009dbe219d6725214" target="_top" xlink:title="reservation_manager.views.\lScrapeWyndham.parseConfirmationRow">
<polygon fill="white" stroke="black" points="462,-49 462,-79 656,-79 656,-49 462,-49"/>
<text text-anchor="start" x="470" y="-67" font-family="Helvetica,sans-Serif" font-size="10.00">reservation_manager.views.</text>
<text text-anchor="middle" x="559" y="-56" font-family="Helvetica,sans-Serif" font-size="10.00">ScrapeWyndham.parseConfirmationRow</text>
</a>
</g>
</g>
<!-- Node2&#45;&gt;Node3 -->
<g id="edge2" class="edge"><title>Node2&#45;&gt;Node3</title>
<path fill="none" stroke="midnightblue" d="M425.541,-64C434.165,-64 442.923,-64 451.615,-64"/>
<polygon fill="midnightblue" stroke="midnightblue" points="451.776,-67.5001 461.776,-64 451.776,-60.5001 451.776,-67.5001"/>
</g>
<!-- Node4 -->
<g id="node4" class="node"><title>Node4</title>
<g id="a_node4"><a xlink:href="classowners__point__manager_1_1views_1_1ScrapeWyndham.html#aa0a734a6401d08811119bbb5dfd98327" target="_top" xlink:title="owners_point_manager.views.\lScrapeWyndham.reformatDate">
<polygon fill="white" stroke="black" points="701,-98 701,-128 853,-128 853,-98 701,-98"/>
<text text-anchor="start" x="709" y="-116" font-family="Helvetica,sans-Serif" font-size="10.00">owners_point_manager.views.</text>
<text text-anchor="middle" x="777" y="-105" font-family="Helvetica,sans-Serif" font-size="10.00">ScrapeWyndham.reformatDate</text>
</a>
</g>
</g>
<!-- Node3&#45;&gt;Node4 -->
<g id="edge3" class="edge"><title>Node3&#45;&gt;Node4</title>
<path fill="none" stroke="midnightblue" d="M626.275,-79.0346C649.6,-84.3259 675.993,-90.3133 700.053,-95.7712"/>
<polygon fill="midnightblue" stroke="midnightblue" points="699.324,-99.1947 709.85,-97.9938 700.872,-92.3682 699.324,-99.1947"/>
</g>
<!-- Node5 -->
<g id="node5" class="node"><title>Node5</title>
<g id="a_node5"><a xlink:href="classreservation__manager_1_1views_1_1ScrapeWyndham.html#abd8c3dd2bad2ab05e01312138b10fcc9" target="_top" xlink:title="reservation_manager.views.\lScrapeWyndham.reformatDate">
<polygon fill="white" stroke="black" points="701,-49 701,-79 853,-79 853,-49 701,-49"/>
<text text-anchor="start" x="709" y="-67" font-family="Helvetica,sans-Serif" font-size="10.00">reservation_manager.views.</text>
<text text-anchor="middle" x="777" y="-56" font-family="Helvetica,sans-Serif" font-size="10.00">ScrapeWyndham.reformatDate</text>
</a>
</g>
</g>
<!-- Node3&#45;&gt;Node5 -->
<g id="edge4" class="edge"><title>Node3&#45;&gt;Node5</title>
<path fill="none" stroke="midnightblue" d="M656.313,-64C667.769,-64 679.402,-64 690.689,-64"/>
<polygon fill="midnightblue" stroke="midnightblue" points="690.942,-67.5001 700.942,-64 690.942,-60.5001 690.942,-67.5001"/>
</g>
<!-- Node6 -->
<g id="node6" class="node"><title>Node6</title>
<g id="a_node6"><a xlink:href="classreservation__manager_1_1views_1_1ScrapeWyndham.html#a2ec515f19139d7640bd548a99f6566b6" target="_top" xlink:title="reservation_manager.views.\lScrapeWyndham.getToPointsPage">
<polygon fill="white" stroke="black" points="692,-0 692,-30 862,-30 862,-0 692,-0"/>
<text text-anchor="start" x="700" y="-18" font-family="Helvetica,sans-Serif" font-size="10.00">reservation_manager.views.</text>
<text text-anchor="middle" x="777" y="-7" font-family="Helvetica,sans-Serif" font-size="10.00">ScrapeWyndham.getToPointsPage</text>
</a>
</g>
</g>
<!-- Node3&#45;&gt;Node6 -->
<g id="edge5" class="edge"><title>Node3&#45;&gt;Node6</title>
<path fill="none" stroke="midnightblue" d="M626.275,-48.9654C649.6,-43.6741 675.993,-37.6867 700.053,-32.2288"/>
<polygon fill="midnightblue" stroke="midnightblue" points="700.872,-35.6318 709.85,-30.0062 699.324,-28.8053 700.872,-35.6318"/>
</g>
<!-- Node7 -->
<g id="node7" class="node"><title>Node7</title>
<g id="a_node7"><a xlink:href="classreservation__manager_1_1views_1_1ScrapeWyndham.html#a2c3b857634800266a0fffc9b93d4e3db" target="_top" xlink:title="reservation_manager.views.\lScrapeWyndham.parsePointsPage">
<polygon fill="white" stroke="black" points="898.5,-0 898.5,-30 1067.5,-30 1067.5,-0 898.5,-0"/>
<text text-anchor="start" x="906.5" y="-18" font-family="Helvetica,sans-Serif" font-size="10.00">reservation_manager.views.</text>
<text text-anchor="middle" x="983" y="-7" font-family="Helvetica,sans-Serif" font-size="10.00">ScrapeWyndham.parsePointsPage</text>
</a>
</g>
</g>
<!-- Node6&#45;&gt;Node7 -->
<g id="edge6" class="edge"><title>Node6&#45;&gt;Node7</title>
<path fill="none" stroke="midnightblue" d="M862.152,-15C870.751,-15 879.524,-15 888.217,-15"/>
<polygon fill="midnightblue" stroke="midnightblue" points="888.37,-18.5001 898.37,-15 888.37,-11.5001 888.37,-18.5001"/>
</g>
</g>
</svg>
