<?xml version="1.0" encoding="UTF-8" standalone="no"?>
<!DOCTYPE svg PUBLIC "-//W3C//DTD SVG 1.1//EN"
 "http://www.w3.org/Graphics/SVG/1.1/DTD/svg11.dtd">
<!-- Generated by graphviz version 2.36.0 (20140111.2315)
 -->
<!-- Title: reservation_manager.migrations.0001_initial.Migration Pages: 1 -->
<svg width="186pt" height="118pt"
 viewBox="0.00 0.00 186.00 118.00" xmlns="http://www.w3.org/2000/svg" xmlns:xlink="http://www.w3.org/1999/xlink">
<g id="graph0" class="graph" transform="scale(1 1) rotate(0) translate(4 114)">
<title>reservation_manager.migrations.0001_initial.Migration</title>
<polygon fill="white" stroke="none" points="-4,4 -4,-114 182,-114 182,4 -4,4"/>
<!-- Node1 -->
<g id="node1" class="node"><title>Node1</title>
<polygon fill="#bfbfbf" stroke="black" points="-0.5,-1 -0.5,-31 178.5,-31 178.5,-1 -0.5,-1"/>
<text text-anchor="start" x="7.5" y="-19" font-family="Helvetica,sans-Serif" font-size="10.00">reservation_manager.migrations.0001</text>
<text text-anchor="middle" x="89" y="-8" font-family="Helvetica,sans-Serif" font-size="10.00">_initial.Migration</text>
</g>
<!-- Node2 -->
<g id="node2" class="node"><title>Node2</title>
<polygon fill="white" stroke="#bfbfbf" points="31,-90.5 31,-109.5 87,-109.5 87,-90.5 31,-90.5"/>
<text text-anchor="middle" x="59" y="-97.5" font-family="Helvetica,sans-Serif" font-size="10.00">Migration</text>
</g>
<!-- Node2&#45;&gt;Node1 -->
<g id="edge1" class="edge"><title>Node2&#45;&gt;Node1</title>
<path fill="none" stroke="midnightblue" d="M65.7497,-80.5508C71.2182,-65.6037 78.8102,-44.8523 83.8108,-31.1839"/>
<polygon fill="midnightblue" stroke="midnightblue" points="62.3595,-79.6308 62.2105,-90.2246 68.9333,-82.0359 62.3595,-79.6308"/>
</g>
<!-- Node3 -->
<g id="node3" class="node"><title>Node3</title>
<polygon fill="white" stroke="#bfbfbf" points="104.5,-90.5 104.5,-109.5 133.5,-109.5 133.5,-90.5 104.5,-90.5"/>
<text text-anchor="middle" x="119" y="-97.5" font-family="Helvetica,sans-Serif" font-size="10.00">list</text>
</g>
<!-- Node3&#45;&gt;Node1 -->
<g id="edge2" class="edge"><title>Node3&#45;&gt;Node1</title>
<path fill="none" stroke="#9a32cd" stroke-dasharray="5,2" d="M112.25,-80.5508C106.782,-65.6037 99.1898,-44.8523 94.1892,-31.1839"/>
<polygon fill="#9a32cd" stroke="#9a32cd" points="109.067,-82.0359 115.789,-90.2246 115.641,-79.6308 109.067,-82.0359"/>
<text text-anchor="middle" x="138.5" y="-64" font-family="Helvetica,sans-Serif" font-size="10.00"> operations</text>
<text text-anchor="middle" x="138.5" y="-53" font-family="Helvetica,sans-Serif" font-size="10.00">dependencies</text>
</g>
</g>
</svg>
