<?xml version="1.0" encoding="UTF-8" standalone="no"?>
<!DOCTYPE svg PUBLIC "-//W3C//DTD SVG 1.1//EN"
 "http://www.w3.org/Graphics/SVG/1.1/DTD/svg11.dtd">
<!-- Generated by graphviz version 2.36.0 (20140111.2315)
 -->
<!-- Title: reservation_manager.models.Reservation Pages: 1 -->
<svg width="197pt" height="228pt"
 viewBox="0.00 0.00 197.00 228.00" xmlns="http://www.w3.org/2000/svg" xmlns:xlink="http://www.w3.org/1999/xlink">
<g id="graph0" class="graph" transform="scale(1 1) rotate(0) translate(4 224)">
<title>reservation_manager.models.Reservation</title>
<polygon fill="white" stroke="none" points="-4,4 -4,-224 193,-224 193,4 -4,4"/>
<!-- Node1 -->
<g id="node1" class="node"><title>Node1</title>
<polygon fill="#bfbfbf" stroke="black" points="-0.5,-1 -0.5,-31 144.5,-31 144.5,-1 -0.5,-1"/>
<text text-anchor="start" x="7.5" y="-19" font-family="Helvetica,sans-Serif" font-size="10.00">reservation_manager.models.</text>
<text text-anchor="middle" x="72" y="-8" font-family="Helvetica,sans-Serif" font-size="10.00">Reservation</text>
</g>
<!-- Node2 -->
<g id="node2" class="node"><title>Node2</title>
<polygon fill="white" stroke="#bfbfbf" points="21.5,-200.5 21.5,-219.5 64.5,-219.5 64.5,-200.5 21.5,-200.5"/>
<text text-anchor="middle" x="43" y="-207.5" font-family="Helvetica,sans-Serif" font-size="10.00">Model</text>
</g>
<!-- Node2&#45;&gt;Node1 -->
<g id="edge1" class="edge"><title>Node2&#45;&gt;Node1</title>
<path fill="none" stroke="midnightblue" d="M45.8765,-189.956C51.6868,-151.487 64.7065,-65.2877 69.8503,-31.2328"/>
<polygon fill="midnightblue" stroke="midnightblue" points="42.3542,-189.841 44.3214,-200.251 49.2757,-190.886 42.3542,-189.841"/>
</g>
<!-- Node3 -->
<g id="node3" class="node"><title>Node3</title>
<polygon fill="white" stroke="#bfbfbf" points="83,-200.5 83,-219.5 121,-219.5 121,-200.5 83,-200.5"/>
<text text-anchor="middle" x="102" y="-207.5" font-family="Helvetica,sans-Serif" font-size="10.00">tuple</text>
</g>
<!-- Node3&#45;&gt;Node1 -->
<g id="edge2" class="edge"><title>Node3&#45;&gt;Node1</title>
<path fill="none" stroke="#9a32cd" stroke-dasharray="5,2" d="M99.0243,-189.956C93.0137,-151.487 79.545,-65.2877 74.2239,-31.2328"/>
<polygon fill="#9a32cd" stroke="#9a32cd" points="95.6311,-190.911 100.633,-200.251 102.547,-189.831 95.6311,-190.911"/>
<text text-anchor="middle" x="143.5" y="-174" font-family="Helvetica,sans-Serif" font-size="10.00"> reason_on_hold</text>
<text text-anchor="middle" x="143.5" y="-163" font-family="Helvetica,sans-Serif" font-size="10.00">amount_paid</text>
<text text-anchor="start" x="98" y="-152" font-family="Helvetica,sans-Serif" font-size="10.00">points_required</text>
<text text-anchor="middle" x="143.5" y="-141" font-family="Helvetica,sans-Serif" font-size="10.00">_for_reservation</text>
<text text-anchor="middle" x="143.5" y="-130" font-family="Helvetica,sans-Serif" font-size="10.00">fk_wish_held_for</text>
<text text-anchor="middle" x="143.5" y="-119" font-family="Helvetica,sans-Serif" font-size="10.00">touched_bool</text>
<text text-anchor="middle" x="143.5" y="-108" font-family="Helvetica,sans-Serif" font-size="10.00">confirmation_number</text>
<text text-anchor="middle" x="143.5" y="-97" font-family="Helvetica,sans-Serif" font-size="10.00">canceled</text>
<text text-anchor="middle" x="143.5" y="-86" font-family="Helvetica,sans-Serif" font-size="10.00">date_booked</text>
<text text-anchor="middle" x="143.5" y="-75" font-family="Helvetica,sans-Serif" font-size="10.00">fk_owner</text>
<text text-anchor="middle" x="143.5" y="-64" font-family="Helvetica,sans-Serif" font-size="10.00">fk_monthly_report</text>
<text text-anchor="middle" x="143.5" y="-53" font-family="Helvetica,sans-Serif" font-size="10.00">...</text>
</g>
</g>
</svg>
