<?xml version="1.0" encoding="UTF-8" standalone="no"?>
<!DOCTYPE svg PUBLIC "-//W3C//DTD SVG 1.1//EN"
 "http://www.w3.org/Graphics/SVG/1.1/DTD/svg11.dtd">
<!-- Generated by graphviz version 2.36.0 (20140111.2315)
 -->
<!-- Title: owners_point_manager.apps.OwnersPointManagerConfig Pages: 1 -->
<svg width="152pt" height="108pt"
 viewBox="0.00 0.00 152.00 108.00" xmlns="http://www.w3.org/2000/svg" xmlns:xlink="http://www.w3.org/1999/xlink">
<g id="graph0" class="graph" transform="scale(1 1) rotate(0) translate(4 104)">
<title>owners_point_manager.apps.OwnersPointManagerConfig</title>
<polygon fill="white" stroke="none" points="-4,4 -4,-104 148,-104 148,4 -4,4"/>
<!-- Node1 -->
<g id="node1" class="node"><title>Node1</title>
<polygon fill="#bfbfbf" stroke="black" points="0,-1 0,-31 144,-31 144,-1 0,-1"/>
<text text-anchor="start" x="8" y="-19" font-family="Helvetica,sans-Serif" font-size="10.00">owners_point_manager.apps.</text>
<text text-anchor="middle" x="72" y="-8" font-family="Helvetica,sans-Serif" font-size="10.00">OwnersPointManagerConfig</text>
</g>
<!-- Node2 -->
<g id="node2" class="node"><title>Node2</title>
<polygon fill="white" stroke="#bfbfbf" points="6,-80.5 6,-99.5 68,-99.5 68,-80.5 6,-80.5"/>
<text text-anchor="middle" x="37" y="-87.5" font-family="Helvetica,sans-Serif" font-size="10.00">AppConfig</text>
</g>
<!-- Node2&#45;&gt;Node1 -->
<g id="edge1" class="edge"><title>Node2&#45;&gt;Node1</title>
<path fill="none" stroke="midnightblue" d="M45.6509,-71.2038C51.6409,-58.8816 59.508,-42.6978 65.0819,-31.2316"/>
<polygon fill="midnightblue" stroke="midnightblue" points="42.3766,-69.934 41.1524,-80.4579 48.6722,-72.9944 42.3766,-69.934"/>
</g>
<!-- Node3 -->
<g id="node3" class="node"><title>Node3</title>
<polygon fill="white" stroke="#bfbfbf" points="86.5,-80.5 86.5,-99.5 127.5,-99.5 127.5,-80.5 86.5,-80.5"/>
<text text-anchor="middle" x="107" y="-87.5" font-family="Helvetica,sans-Serif" font-size="10.00">string</text>
</g>
<!-- Node3&#45;&gt;Node1 -->
<g id="edge2" class="edge"><title>Node3&#45;&gt;Node1</title>
<path fill="none" stroke="#9a32cd" stroke-dasharray="5,2" d="M98.3491,-71.2038C92.3591,-58.8816 84.492,-42.6978 78.9181,-31.2316"/>
<polygon fill="#9a32cd" stroke="#9a32cd" points="95.3278,-72.9944 102.848,-80.4579 101.623,-69.934 95.3278,-72.9944"/>
<text text-anchor="middle" x="108" y="-53.5" font-family="Helvetica,sans-Serif" font-size="10.00"> name</text>
</g>
</g>
</svg>
