<?xml version="1.0" encoding="UTF-8" standalone="no"?>
<!DOCTYPE svg PUBLIC "-//W3C//DTD SVG 1.1//EN"
 "http://www.w3.org/Graphics/SVG/1.1/DTD/svg11.dtd">
<!-- Generated by graphviz version 2.36.0 (20140111.2315)
 -->
<!-- Title: reservation_manager.models.ReservationManagerApplicationSettings Pages: 1 -->
<svg width="198pt" height="118pt"
 viewBox="0.00 0.00 198.00 118.00" xmlns="http://www.w3.org/2000/svg" xmlns:xlink="http://www.w3.org/1999/xlink">
<g id="graph0" class="graph" transform="scale(1 1) rotate(0) translate(4 114)">
<title>reservation_manager.models.ReservationManagerApplicationSettings</title>
<polygon fill="white" stroke="none" points="-4,4 -4,-114 194,-114 194,4 -4,4"/>
<!-- Node1 -->
<g id="node1" class="node"><title>Node1</title>
<polygon fill="#bfbfbf" stroke="black" points="-0.5,-1 -0.5,-31 190.5,-31 190.5,-1 -0.5,-1"/>
<text text-anchor="start" x="7.5" y="-19" font-family="Helvetica,sans-Serif" font-size="10.00">reservation_manager.models.</text>
<text text-anchor="middle" x="95" y="-8" font-family="Helvetica,sans-Serif" font-size="10.00">ReservationManagerApplicationSettings</text>
</g>
<!-- Node2 -->
<g id="node2" class="node"><title>Node2</title>
<polygon fill="white" stroke="#bfbfbf" points="44.5,-90.5 44.5,-109.5 87.5,-109.5 87.5,-90.5 44.5,-90.5"/>
<text text-anchor="middle" x="66" y="-97.5" font-family="Helvetica,sans-Serif" font-size="10.00">Model</text>
</g>
<!-- Node2&#45;&gt;Node1 -->
<g id="edge1" class="edge"><title>Node2&#45;&gt;Node1</title>
<path fill="none" stroke="midnightblue" d="M72.5247,-80.5508C77.8109,-65.6037 85.1498,-44.8523 89.9838,-31.1839"/>
<polygon fill="midnightblue" stroke="midnightblue" points="69.1381,-79.6298 69.1035,-90.2246 75.7375,-81.9638 69.1381,-79.6298"/>
</g>
<!-- Node3 -->
<g id="node3" class="node"><title>Node3</title>
<polygon fill="white" stroke="#bfbfbf" points="106,-90.5 106,-109.5 144,-109.5 144,-90.5 106,-90.5"/>
<text text-anchor="middle" x="125" y="-97.5" font-family="Helvetica,sans-Serif" font-size="10.00">tuple</text>
</g>
<!-- Node3&#45;&gt;Node1 -->
<g id="edge2" class="edge"><title>Node3&#45;&gt;Node1</title>
<path fill="none" stroke="#9a32cd" stroke-dasharray="5,2" d="M118.25,-80.5508C112.782,-65.6037 105.19,-44.8523 100.189,-31.1839"/>
<polygon fill="#9a32cd" stroke="#9a32cd" points="115.067,-82.0359 121.789,-90.2246 121.641,-79.6308 115.067,-82.0359"/>
<text text-anchor="middle" x="152.5" y="-64" font-family="Helvetica,sans-Serif" font-size="10.00"> last_updated_by</text>
<text text-anchor="middle" x="152.5" y="-53" font-family="Helvetica,sans-Serif" font-size="10.00">last_updated</text>
</g>
</g>
</svg>
