<?xml version="1.0" encoding="UTF-8" standalone="no"?>
<!DOCTYPE svg PUBLIC "-//W3C//DTD SVG 1.1//EN"
 "http://www.w3.org/Graphics/SVG/1.1/DTD/svg11.dtd">
<!-- Generated by graphviz version 2.36.0 (20140111.2315)
 -->
<!-- Title: guest_reservation_manager.migrations.0001_initial.Migration Pages: 1 -->
<svg width="216pt" height="118pt"
 viewBox="0.00 0.00 216.00 118.00" xmlns="http://www.w3.org/2000/svg" xmlns:xlink="http://www.w3.org/1999/xlink">
<g id="graph0" class="graph" transform="scale(1 1) rotate(0) translate(4 114)">
<title>guest_reservation_manager.migrations.0001_initial.Migration</title>
<polygon fill="white" stroke="none" points="-4,4 -4,-114 212,-114 212,4 -4,4"/>
<!-- Node1 -->
<g id="node1" class="node"><title>Node1</title>
<polygon fill="#bfbfbf" stroke="black" points="-0.5,-1 -0.5,-31 208.5,-31 208.5,-1 -0.5,-1"/>
<text text-anchor="start" x="7.5" y="-19" font-family="Helvetica,sans-Serif" font-size="10.00">guest_reservation_manager.migrations.0001</text>
<text text-anchor="middle" x="104" y="-8" font-family="Helvetica,sans-Serif" font-size="10.00">_initial.Migration</text>
</g>
<!-- Node2 -->
<g id="node2" class="node"><title>Node2</title>
<polygon fill="white" stroke="#bfbfbf" points="46,-90.5 46,-109.5 102,-109.5 102,-90.5 46,-90.5"/>
<text text-anchor="middle" x="74" y="-97.5" font-family="Helvetica,sans-Serif" font-size="10.00">Migration</text>
</g>
<!-- Node2&#45;&gt;Node1 -->
<g id="edge1" class="edge"><title>Node2&#45;&gt;Node1</title>
<path fill="none" stroke="midnightblue" d="M80.7497,-80.5508C86.2182,-65.6037 93.8102,-44.8523 98.8108,-31.1839"/>
<polygon fill="midnightblue" stroke="midnightblue" points="77.3595,-79.6308 77.2105,-90.2246 83.9333,-82.0359 77.3595,-79.6308"/>
</g>
<!-- Node3 -->
<g id="node3" class="node"><title>Node3</title>
<polygon fill="white" stroke="#bfbfbf" points="119.5,-90.5 119.5,-109.5 148.5,-109.5 148.5,-90.5 119.5,-90.5"/>
<text text-anchor="middle" x="134" y="-97.5" font-family="Helvetica,sans-Serif" font-size="10.00">list</text>
</g>
<!-- Node3&#45;&gt;Node1 -->
<g id="edge2" class="edge"><title>Node3&#45;&gt;Node1</title>
<path fill="none" stroke="#9a32cd" stroke-dasharray="5,2" d="M127.25,-80.5508C121.782,-65.6037 114.19,-44.8523 109.189,-31.1839"/>
<polygon fill="#9a32cd" stroke="#9a32cd" points="124.067,-82.0359 130.789,-90.2246 130.641,-79.6308 124.067,-82.0359"/>
<text text-anchor="middle" x="153.5" y="-64" font-family="Helvetica,sans-Serif" font-size="10.00"> operations</text>
<text text-anchor="middle" x="153.5" y="-53" font-family="Helvetica,sans-Serif" font-size="10.00">dependencies</text>
</g>
</g>
</svg>
