<?xml version="1.0" encoding="UTF-8" standalone="no"?>
<!DOCTYPE svg PUBLIC "-//W3C//DTD SVG 1.1//EN"
 "http://www.w3.org/Graphics/SVG/1.1/DTD/svg11.dtd">
<!-- Generated by graphviz version 2.36.0 (20140111.2315)
 -->
<!-- Title: Graphical Class Hierarchy Pages: 1 -->
<svg width="282pt" height="381pt"
 viewBox="0.00 0.00 282.00 381.00" xmlns="http://www.w3.org/2000/svg" xmlns:xlink="http://www.w3.org/1999/xlink">
<g id="graph0" class="graph" transform="scale(1 1) rotate(0) translate(4 377)">
<title>Graphical Class Hierarchy</title>
<polygon fill="white" stroke="none" points="-4,4 -4,-377 278,-377 278,4 -4,4"/>
<!-- Node1 -->
<g id="node1" class="node"><title>Node1</title>
<polygon fill="white" stroke="#bfbfbf" points="0.5,-176.5 0.5,-195.5 43.5,-195.5 43.5,-176.5 0.5,-176.5"/>
<text text-anchor="middle" x="22" y="-183.5" font-family="Helvetica,sans-Serif" font-size="10.00">Model</text>
</g>
<!-- Node2 -->
<g id="node2" class="node"><title>Node2</title>
<g id="a_node2"><a xlink:href="classguest__reservation__manager_1_1models_1_1GuestReservation.html" target="_top" xlink:title="guest_reservation_manager.models.\lGuestReservation">
<polygon fill="white" stroke="black" points="90,-343 90,-373 264,-373 264,-343 90,-343"/>
<text text-anchor="start" x="98" y="-361" font-family="Helvetica,sans-Serif" font-size="10.00">guest_reservation_manager.models.</text>
<text text-anchor="middle" x="177" y="-350" font-family="Helvetica,sans-Serif" font-size="10.00">GuestReservation</text>
</a>
</g>
</g>
<!-- Node1&#45;&gt;Node2 -->
<g id="edge1" class="edge"><title>Node1&#45;&gt;Node2</title>
<path fill="none" stroke="midnightblue" d="M24.9795,-205.748C29.2262,-237.379 42.1409,-299.267 80,-333 84.372,-336.895 89.276,-340.197 94.4936,-342.994"/>
<polygon fill="midnightblue" stroke="midnightblue" points="28.4264,-205.091 23.7769,-195.571 21.4747,-205.913 28.4264,-205.091"/>
</g>
<!-- Node3 -->
<g id="node3" class="node"><title>Node3</title>
<g id="a_node3"><a xlink:href="classguest__reservation__manager_1_1models_1_1RuthSheet.html" target="_top" xlink:title="guest_reservation_manager.models.\lRuthSheet">
<polygon fill="white" stroke="black" points="90,-294 90,-324 264,-324 264,-294 90,-294"/>
<text text-anchor="start" x="98" y="-312" font-family="Helvetica,sans-Serif" font-size="10.00">guest_reservation_manager.models.</text>
<text text-anchor="middle" x="177" y="-301" font-family="Helvetica,sans-Serif" font-size="10.00">RuthSheet</text>
</a>
</g>
</g>
<!-- Node1&#45;&gt;Node3 -->
<g id="edge2" class="edge"><title>Node1&#45;&gt;Node3</title>
<path fill="none" stroke="midnightblue" d="M29.1763,-205.516C37.2611,-227.861 53.5952,-263.953 80,-284 85.0753,-287.853 90.6889,-291.115 96.5792,-293.876"/>
<polygon fill="midnightblue" stroke="midnightblue" points="32.3984,-204.121 25.8622,-195.782 25.772,-206.377 32.3984,-204.121"/>
</g>
<!-- Node4 -->
<g id="node4" class="node"><title>Node4</title>
<g id="a_node4"><a xlink:href="classmonthly__summary_1_1models_1_1MonthlyReport.html" target="_top" xlink:title="monthly_summary.models.Monthly\lReport">
<polygon fill="white" stroke="black" points="92.5,-245 92.5,-275 261.5,-275 261.5,-245 92.5,-245"/>
<text text-anchor="start" x="100.5" y="-263" font-family="Helvetica,sans-Serif" font-size="10.00">monthly_summary.models.Monthly</text>
<text text-anchor="middle" x="177" y="-252" font-family="Helvetica,sans-Serif" font-size="10.00">Report</text>
</a>
</g>
</g>
<!-- Node1&#45;&gt;Node4 -->
<g id="edge3" class="edge"><title>Node1&#45;&gt;Node4</title>
<path fill="none" stroke="midnightblue" d="M38.6602,-202.97C49.354,-213.611 64.3717,-226.816 80,-235 87.3997,-238.875 95.4412,-242.179 103.616,-244.99"/>
<polygon fill="midnightblue" stroke="midnightblue" points="41.1652,-200.526 31.6907,-195.784 36.1401,-205.399 41.1652,-200.526"/>
</g>
<!-- Node5 -->
<g id="node5" class="node"><title>Node5</title>
<g id="a_node5"><a xlink:href="classowners__point__manager_1_1models_1_1OwnerPointsManagerApplicationSettings.html" target="_top" xlink:title="owners_point_manager.models.\lOwnerPointsManagerApplicationSettings">
<polygon fill="white" stroke="black" points="80,-196 80,-226 274,-226 274,-196 80,-196"/>
<text text-anchor="start" x="88" y="-214" font-family="Helvetica,sans-Serif" font-size="10.00">owners_point_manager.models.</text>
<text text-anchor="middle" x="177" y="-203" font-family="Helvetica,sans-Serif" font-size="10.00">OwnerPointsManagerApplicationSettings</text>
</a>
</g>
</g>
<!-- Node1&#45;&gt;Node5 -->
<g id="edge4" class="edge"><title>Node1&#45;&gt;Node5</title>
<path fill="none" stroke="midnightblue" d="M53.5947,-190.999C62.6611,-192.481 73.0925,-194.185 83.9608,-195.961"/>
<polygon fill="midnightblue" stroke="midnightblue" points="54.0678,-187.53 43.6343,-189.372 52.9389,-194.438 54.0678,-187.53"/>
</g>
<!-- Node6 -->
<g id="node6" class="node"><title>Node6</title>
<g id="a_node6"><a xlink:href="classowners__point__manager_1_1models_1_1Owners__Points__Status.html" target="_top" xlink:title="owners_point_manager.models.\lOwners_Points_Status">
<polygon fill="white" stroke="black" points="99.5,-147 99.5,-177 254.5,-177 254.5,-147 99.5,-147"/>
<text text-anchor="start" x="107.5" y="-165" font-family="Helvetica,sans-Serif" font-size="10.00">owners_point_manager.models.</text>
<text text-anchor="middle" x="177" y="-154" font-family="Helvetica,sans-Serif" font-size="10.00">Owners_Points_Status</text>
</a>
</g>
</g>
<!-- Node1&#45;&gt;Node6 -->
<g id="edge5" class="edge"><title>Node1&#45;&gt;Node6</title>
<path fill="none" stroke="midnightblue" d="M53.6146,-181.198C66.9133,-179.112 83.1463,-176.565 99.3862,-174.018"/>
<polygon fill="midnightblue" stroke="midnightblue" points="52.971,-177.756 43.6343,-182.763 54.0559,-184.671 52.971,-177.756"/>
</g>
<!-- Node7 -->
<g id="node7" class="node"><title>Node7</title>
<g id="a_node7"><a xlink:href="classreservation__manager_1_1models_1_1Owner.html" target="_top" xlink:title="reservation_manager.models.\lOwner">
<polygon fill="white" stroke="black" points="104.5,-98 104.5,-128 249.5,-128 249.5,-98 104.5,-98"/>
<text text-anchor="start" x="112.5" y="-116" font-family="Helvetica,sans-Serif" font-size="10.00">reservation_manager.models.</text>
<text text-anchor="middle" x="177" y="-105" font-family="Helvetica,sans-Serif" font-size="10.00">Owner</text>
</a>
</g>
</g>
<!-- Node1&#45;&gt;Node7 -->
<g id="edge6" class="edge"><title>Node1&#45;&gt;Node7</title>
<path fill="none" stroke="midnightblue" d="M39.0362,-169.084C49.7341,-158.718 64.6162,-145.957 80,-138 87.6488,-134.044 95.9718,-130.68 104.414,-127.827"/>
<polygon fill="midnightblue" stroke="midnightblue" points="36.3049,-166.866 31.732,-176.423 41.2667,-171.804 36.3049,-166.866"/>
</g>
<!-- Node8 -->
<g id="node8" class="node"><title>Node8</title>
<g id="a_node8"><a xlink:href="classreservation__manager_1_1models_1_1Reservation.html" target="_top" xlink:title="reservation_manager.models.\lReservation">
<polygon fill="white" stroke="black" points="104.5,-49 104.5,-79 249.5,-79 249.5,-49 104.5,-49"/>
<text text-anchor="start" x="112.5" y="-67" font-family="Helvetica,sans-Serif" font-size="10.00">reservation_manager.models.</text>
<text text-anchor="middle" x="177" y="-56" font-family="Helvetica,sans-Serif" font-size="10.00">Reservation</text>
</a>
</g>
</g>
<!-- Node1&#45;&gt;Node8 -->
<g id="edge7" class="edge"><title>Node1&#45;&gt;Node8</title>
<path fill="none" stroke="midnightblue" d="M29.2313,-166.68C37.3682,-144.562 53.7518,-108.836 80,-89 87.2824,-83.4967 95.6641,-79.2005 104.378,-75.8476"/>
<polygon fill="midnightblue" stroke="midnightblue" points="25.8595,-165.722 25.8922,-176.316 32.4736,-168.014 25.8595,-165.722"/>
</g>
<!-- Node9 -->
<g id="node9" class="node"><title>Node9</title>
<g id="a_node9"><a xlink:href="classreservation__manager_1_1models_1_1ReservationManagerApplicationSettings.html" target="_top" xlink:title="reservation_manager.models.\lReservationManagerApplicationSettings">
<polygon fill="white" stroke="black" points="81.5,-0 81.5,-30 272.5,-30 272.5,-0 81.5,-0"/>
<text text-anchor="start" x="89.5" y="-18" font-family="Helvetica,sans-Serif" font-size="10.00">reservation_manager.models.</text>
<text text-anchor="middle" x="177" y="-7" font-family="Helvetica,sans-Serif" font-size="10.00">ReservationManagerApplicationSettings</text>
</a>
</g>
</g>
<!-- Node1&#45;&gt;Node9 -->
<g id="edge8" class="edge"><title>Node1&#45;&gt;Node9</title>
<path fill="none" stroke="midnightblue" d="M25.0219,-166.384C29.3286,-134.963 42.326,-73.4899 80,-40 84.3765,-36.1096 89.2838,-32.8116 94.5038,-30.0173"/>
<polygon fill="midnightblue" stroke="midnightblue" points="21.5254,-166.144 23.7989,-176.492 28.4747,-166.985 21.5254,-166.144"/>
</g>
</g>
</svg>
