<?xml version="1.0" encoding="UTF-8" standalone="no"?>
<!DOCTYPE svg PUBLIC "-//W3C//DTD SVG 1.1//EN"
 "http://www.w3.org/Graphics/SVG/1.1/DTD/svg11.dtd">
<!-- Generated by graphviz version 2.36.0 (20140111.2315)
 -->
<!-- Title: Graphical Class Hierarchy Pages: 1 -->
<svg width="270pt" height="136pt"
 viewBox="0.00 0.00 270.00 136.00" xmlns="http://www.w3.org/2000/svg" xmlns:xlink="http://www.w3.org/1999/xlink">
<g id="graph0" class="graph" transform="scale(1 1) rotate(0) translate(4 132)">
<title>Graphical Class Hierarchy</title>
<polygon fill="white" stroke="none" points="-4,4 -4,-132 266,-132 266,4 -4,4"/>
<!-- Node1 -->
<g id="node1" class="node"><title>Node1</title>
<polygon fill="white" stroke="#bfbfbf" points="0,-54.5 0,-73.5 62,-73.5 62,-54.5 0,-54.5"/>
<text text-anchor="middle" x="31" y="-61.5" font-family="Helvetica,sans-Serif" font-size="10.00">AppConfig</text>
</g>
<!-- Node2 -->
<g id="node2" class="node"><title>Node2</title>
<g id="a_node2"><a xlink:href="classguest__reservation__manager_1_1apps_1_1GuestReservationManagerConfig.html" target="_top" xlink:title="guest_reservation_manager.apps.\lGuestReservationManagerConfig">
<polygon fill="white" stroke="black" points="98,-98 98,-128 262,-128 262,-98 98,-98"/>
<text text-anchor="start" x="106" y="-116" font-family="Helvetica,sans-Serif" font-size="10.00">guest_reservation_manager.apps.</text>
<text text-anchor="middle" x="180" y="-105" font-family="Helvetica,sans-Serif" font-size="10.00">GuestReservationManagerConfig</text>
</a>
</g>
</g>
<!-- Node1&#45;&gt;Node2 -->
<g id="edge1" class="edge"><title>Node1&#45;&gt;Node2</title>
<path fill="none" stroke="midnightblue" d="M66.9101,-77.0589C76.9143,-80.7021 87.8581,-84.5932 98,-88 107.905,-91.3273 118.547,-94.7319 128.754,-97.9151"/>
<polygon fill="midnightblue" stroke="midnightblue" points="67.8771,-73.6856 57.2835,-73.5256 65.4651,-80.257 67.8771,-73.6856"/>
</g>
<!-- Node3 -->
<g id="node3" class="node"><title>Node3</title>
<g id="a_node3"><a xlink:href="classowners__point__manager_1_1apps_1_1OwnersPointManagerConfig.html" target="_top" xlink:title="owners_point_manager.apps.\lOwnersPointManagerConfig">
<polygon fill="white" stroke="black" points="108,-49 108,-79 252,-79 252,-49 108,-49"/>
<text text-anchor="start" x="116" y="-67" font-family="Helvetica,sans-Serif" font-size="10.00">owners_point_manager.apps.</text>
<text text-anchor="middle" x="180" y="-56" font-family="Helvetica,sans-Serif" font-size="10.00">OwnersPointManagerConfig</text>
</a>
</g>
</g>
<!-- Node1&#45;&gt;Node3 -->
<g id="edge2" class="edge"><title>Node1&#45;&gt;Node3</title>
<path fill="none" stroke="midnightblue" d="M72.2856,-64C83.3604,-64 95.7093,-64 107.967,-64"/>
<polygon fill="midnightblue" stroke="midnightblue" points="72.1024,-60.5001 62.1024,-64 72.1023,-67.5001 72.1024,-60.5001"/>
</g>
<!-- Node4 -->
<g id="node4" class="node"><title>Node4</title>
<g id="a_node4"><a xlink:href="classreservation__manager_1_1apps_1_1ReservationManagerConfig.html" target="_top" xlink:title="reservation_manager.apps.\lReservationManagerConfig">
<polygon fill="white" stroke="black" points="112.5,-0 112.5,-30 247.5,-30 247.5,-0 112.5,-0"/>
<text text-anchor="start" x="120.5" y="-18" font-family="Helvetica,sans-Serif" font-size="10.00">reservation_manager.apps.</text>
<text text-anchor="middle" x="180" y="-7" font-family="Helvetica,sans-Serif" font-size="10.00">ReservationManagerConfig</text>
</a>
</g>
</g>
<!-- Node1&#45;&gt;Node4 -->
<g id="edge3" class="edge"><title>Node1&#45;&gt;Node4</title>
<path fill="none" stroke="midnightblue" d="M66.9101,-50.9411C76.9143,-47.2979 87.8581,-43.4068 98,-40 107.905,-36.6727 118.547,-33.2681 128.754,-30.0849"/>
<polygon fill="midnightblue" stroke="midnightblue" points="65.4651,-47.743 57.2835,-54.4744 67.8771,-54.3144 65.4651,-47.743"/>
</g>
</g>
</svg>
