<?xml version="1.0" encoding="UTF-8" standalone="no"?>
<!DOCTYPE svg PUBLIC "-//W3C//DTD SVG 1.1//EN"
 "http://www.w3.org/Graphics/SVG/1.1/DTD/svg11.dtd">
<!-- Generated by graphviz version 2.36.0 (20140111.2315)
 -->
<!-- Title: Graphical Class Hierarchy Pages: 1 -->
<svg width="310pt" height="185pt"
 viewBox="0.00 0.00 310.00 185.00" xmlns="http://www.w3.org/2000/svg" xmlns:xlink="http://www.w3.org/1999/xlink">
<g id="graph0" class="graph" transform="scale(1 1) rotate(0) translate(4 181)">
<title>Graphical Class Hierarchy</title>
<polygon fill="white" stroke="none" points="-4,4 -4,-181 306,-181 306,4 -4,4"/>
<!-- Node1 -->
<g id="node1" class="node"><title>Node1</title>
<polygon fill="white" stroke="#bfbfbf" points="0,-78.5 0,-97.5 56,-97.5 56,-78.5 0,-78.5"/>
<text text-anchor="middle" x="28" y="-85.5" font-family="Helvetica,sans-Serif" font-size="10.00">Migration</text>
</g>
<!-- Node2 -->
<g id="node2" class="node"><title>Node2</title>
<g id="a_node2"><a xlink:href="classguest__reservation__manager_1_1migrations_1_10001__initial_1_1Migration.html" target="_top" xlink:title="guest_reservation_manager.migrations.0001\l_initial.Migration">
<polygon fill="white" stroke="black" points="92.5,-147 92.5,-177 301.5,-177 301.5,-147 92.5,-147"/>
<text text-anchor="start" x="100.5" y="-165" font-family="Helvetica,sans-Serif" font-size="10.00">guest_reservation_manager.migrations.0001</text>
<text text-anchor="middle" x="197" y="-154" font-family="Helvetica,sans-Serif" font-size="10.00">_initial.Migration</text>
</a>
</g>
</g>
<!-- Node1&#45;&gt;Node2 -->
<g id="edge1" class="edge"><title>Node1&#45;&gt;Node2</title>
<path fill="none" stroke="midnightblue" d="M46.2257,-104.702C58.1771,-115.413 74.9566,-128.799 92,-137 100.032,-140.865 108.708,-144.159 117.505,-146.961"/>
<polygon fill="midnightblue" stroke="midnightblue" points="48.4959,-102.034 38.779,-97.8114 43.7416,-107.172 48.4959,-102.034"/>
</g>
<!-- Node3 -->
<g id="node3" class="node"><title>Node3</title>
<g id="a_node3"><a xlink:href="classmonthly__summary_1_1migrations_1_10001__initial_1_1Migration.html" target="_top" xlink:title="monthly_summary.migrations.0001\l_initial.Migration">
<polygon fill="white" stroke="black" points="112.5,-98 112.5,-128 281.5,-128 281.5,-98 112.5,-98"/>
<text text-anchor="start" x="120.5" y="-116" font-family="Helvetica,sans-Serif" font-size="10.00">monthly_summary.migrations.0001</text>
<text text-anchor="middle" x="197" y="-105" font-family="Helvetica,sans-Serif" font-size="10.00">_initial.Migration</text>
</a>
</g>
</g>
<!-- Node1&#45;&gt;Node3 -->
<g id="edge2" class="edge"><title>Node1&#45;&gt;Node3</title>
<path fill="none" stroke="midnightblue" d="M66.1634,-93.5634C79.8612,-95.614 95.9935,-98.029 112.144,-100.447"/>
<polygon fill="midnightblue" stroke="midnightblue" points="66.6111,-90.0915 56.2031,-92.0723 65.5747,-97.0143 66.6111,-90.0915"/>
</g>
<!-- Node4 -->
<g id="node4" class="node"><title>Node4</title>
<g id="a_node4"><a xlink:href="classowners__point__manager_1_1migrations_1_10001__initial_1_1Migration.html" target="_top" xlink:title="owners_point_manager.migrations.0001\l_initial.Migration">
<polygon fill="white" stroke="black" points="102.5,-49 102.5,-79 291.5,-79 291.5,-49 102.5,-49"/>
<text text-anchor="start" x="110.5" y="-67" font-family="Helvetica,sans-Serif" font-size="10.00">owners_point_manager.migrations.0001</text>
<text text-anchor="middle" x="197" y="-56" font-family="Helvetica,sans-Serif" font-size="10.00">_initial.Migration</text>
</a>
</g>
</g>
<!-- Node1&#45;&gt;Node4 -->
<g id="edge3" class="edge"><title>Node1&#45;&gt;Node4</title>
<path fill="none" stroke="midnightblue" d="M66.1585,-82.6599C77.0784,-81.0905 89.5457,-79.2988 102.336,-77.4607"/>
<polygon fill="midnightblue" stroke="midnightblue" points="65.6035,-79.2036 56.2031,-84.0906 66.5993,-86.1324 65.6035,-79.2036"/>
</g>
<!-- Node5 -->
<g id="node5" class="node"><title>Node5</title>
<g id="a_node5"><a xlink:href="classreservation__manager_1_1migrations_1_10001__initial_1_1Migration.html" target="_top" xlink:title="reservation_manager.migrations.0001\l_initial.Migration">
<polygon fill="white" stroke="black" points="107.5,-0 107.5,-30 286.5,-30 286.5,-0 107.5,-0"/>
<text text-anchor="start" x="115.5" y="-18" font-family="Helvetica,sans-Serif" font-size="10.00">reservation_manager.migrations.0001</text>
<text text-anchor="middle" x="197" y="-7" font-family="Helvetica,sans-Serif" font-size="10.00">_initial.Migration</text>
</a>
</g>
</g>
<!-- Node1&#45;&gt;Node5 -->
<g id="edge4" class="edge"><title>Node1&#45;&gt;Node5</title>
<path fill="none" stroke="midnightblue" d="M46.2844,-71.6519C58.261,-61.1657 75.0465,-48.0538 92,-40 100.135,-36.1354 108.921,-32.8378 117.818,-30.0311"/>
<polygon fill="midnightblue" stroke="midnightblue" points="43.8918,-69.0966 38.8182,-78.3977 48.5847,-74.2906 43.8918,-69.0966"/>
</g>
</g>
</svg>
