<?xml version="1.0" encoding="UTF-8" standalone="no"?>
<!DOCTYPE svg PUBLIC "-//W3C//DTD SVG 1.1//EN"
 "http://www.w3.org/Graphics/SVG/1.1/DTD/svg11.dtd">
<!-- Generated by graphviz version 2.36.0 (20140111.2315)
 -->
<!-- Title: push_backup.main Pages: 1 -->
<svg width="664pt" height="66pt"
 viewBox="0.00 0.00 664.00 66.00" xmlns="http://www.w3.org/2000/svg" xmlns:xlink="http://www.w3.org/1999/xlink">
<g id="graph0" class="graph" transform="scale(1 1) rotate(0) translate(4 62)">
<title>push_backup.main</title>
<polygon fill="white" stroke="none" points="-4,4 -4,-62 660,-62 660,4 -4,4"/>
<!-- Node1 -->
<g id="node1" class="node"><title>Node1</title>
<polygon fill="#bfbfbf" stroke="black" points="0,-19.5 0,-38.5 98,-38.5 98,-19.5 0,-19.5"/>
<text text-anchor="middle" x="49" y="-26.5" font-family="Helvetica,sans-Serif" font-size="10.00">push_backup.main</text>
</g>
<!-- Node2 -->
<g id="node2" class="node"><title>Node2</title>
<g id="a_node2"><a xlink:href="namespacepush__backup.html#a421052de0cc6d5249be8227ec25a2af0" target="_top" xlink:title="push_backup.makeFolder">
<polygon fill="white" stroke="black" points="140,-38.5 140,-57.5 268,-57.5 268,-38.5 140,-38.5"/>
<text text-anchor="middle" x="204" y="-45.5" font-family="Helvetica,sans-Serif" font-size="10.00">push_backup.makeFolder</text>
</a>
</g>
</g>
<!-- Node1&#45;&gt;Node2 -->
<g id="edge1" class="edge"><title>Node1&#45;&gt;Node2</title>
<path fill="none" stroke="midnightblue" d="M98.4102,-35.0117C108.362,-36.2475 119.05,-37.5748 129.657,-38.892"/>
<polygon fill="midnightblue" stroke="midnightblue" points="129.42,-42.3894 139.775,-40.1486 130.283,-35.4428 129.42,-42.3894"/>
</g>
<!-- Node5 -->
<g id="node5" class="node"><title>Node5</title>
<g id="a_node5"><a xlink:href="namespacepush__backup.html#a6bdce90563e369acd465fe4584f216b5" target="_top" xlink:title="push_backup.copyJsonFiles">
<polygon fill="white" stroke="black" points="134,-0.5 134,-19.5 274,-19.5 274,-0.5 134,-0.5"/>
<text text-anchor="middle" x="204" y="-7.5" font-family="Helvetica,sans-Serif" font-size="10.00">push_backup.copyJsonFiles</text>
</a>
</g>
</g>
<!-- Node1&#45;&gt;Node5 -->
<g id="edge4" class="edge"><title>Node1&#45;&gt;Node5</title>
<path fill="none" stroke="midnightblue" d="M98.4102,-22.9883C106.527,-21.9803 115.135,-20.9114 123.788,-19.8367"/>
<polygon fill="midnightblue" stroke="midnightblue" points="124.449,-23.2817 133.942,-18.5759 123.586,-16.335 124.449,-23.2817"/>
</g>
<!-- Node3 -->
<g id="node3" class="node"><title>Node3</title>
<g id="a_node3"><a xlink:href="namespacepush__backup.html#aae407dbc87a64b7a649c305dfc218787" target="_top" xlink:title="push_backup.getBackupPath">
<polygon fill="white" stroke="black" points="310,-19.5 310,-38.5 454,-38.5 454,-19.5 310,-19.5"/>
<text text-anchor="middle" x="382" y="-26.5" font-family="Helvetica,sans-Serif" font-size="10.00">push_backup.getBackupPath</text>
</a>
</g>
</g>
<!-- Node2&#45;&gt;Node3 -->
<g id="edge2" class="edge"><title>Node2&#45;&gt;Node3</title>
<path fill="none" stroke="midnightblue" d="M268.043,-41.1942C278.283,-40.0887 289.015,-38.9302 299.618,-37.7855"/>
<polygon fill="midnightblue" stroke="midnightblue" points="300.158,-41.2477 309.724,-36.6945 299.406,-34.2882 300.158,-41.2477"/>
</g>
<!-- Node4 -->
<g id="node4" class="node"><title>Node4</title>
<g id="a_node4"><a xlink:href="namespacepush__backup.html#a41c63d89ed94411061dbcfe0572c3482" target="_top" xlink:title="push_backup.getDateFolderName">
<polygon fill="white" stroke="black" points="490.5,-19.5 490.5,-38.5 655.5,-38.5 655.5,-19.5 490.5,-19.5"/>
<text text-anchor="middle" x="573" y="-26.5" font-family="Helvetica,sans-Serif" font-size="10.00">push_backup.getDateFolderName</text>
</a>
</g>
</g>
<!-- Node3&#45;&gt;Node4 -->
<g id="edge3" class="edge"><title>Node3&#45;&gt;Node4</title>
<path fill="none" stroke="midnightblue" d="M454.183,-29C462.682,-29 471.449,-29 480.186,-29"/>
<polygon fill="midnightblue" stroke="midnightblue" points="480.41,-32.5001 490.41,-29 480.41,-25.5001 480.41,-32.5001"/>
</g>
<!-- Node5&#45;&gt;Node3 -->
<g id="edge5" class="edge"><title>Node5&#45;&gt;Node3</title>
<path fill="none" stroke="midnightblue" d="M274.055,-17.4548C282.499,-18.3664 291.188,-19.3044 299.79,-20.233"/>
<polygon fill="midnightblue" stroke="midnightblue" points="299.51,-23.7231 309.828,-21.3167 300.262,-16.7635 299.51,-23.7231"/>
</g>
</g>
</svg>
