<?xml version="1.0" encoding="UTF-8" standalone="no"?>
<!DOCTYPE svg PUBLIC "-//W3C//DTD SVG 1.1//EN"
 "http://www.w3.org/Graphics/SVG/1.1/DTD/svg11.dtd">
<!-- Generated by graphviz version 2.36.0 (20140111.2315)
 -->
<!-- Title: upgrade_recognition.views.main Pages: 1 -->
<svg width="752pt" height="38pt"
 viewBox="0.00 0.00 752.00 38.00" xmlns="http://www.w3.org/2000/svg" xmlns:xlink="http://www.w3.org/1999/xlink">
<g id="graph0" class="graph" transform="scale(1 1) rotate(0) translate(4 34)">
<title>upgrade_recognition.views.main</title>
<polygon fill="white" stroke="none" points="-4,4 -4,-34 748,-34 748,4 -4,4"/>
<!-- Node1 -->
<g id="node1" class="node"><title>Node1</title>
<polygon fill="#bfbfbf" stroke="black" points="0,-5.5 0,-24.5 156,-24.5 156,-5.5 0,-5.5"/>
<text text-anchor="middle" x="78" y="-12.5" font-family="Helvetica,sans-Serif" font-size="10.00">upgrade_recognition.views.main</text>
</g>
<!-- Node2 -->
<g id="node2" class="node"><title>Node2</title>
<g id="a_node2"><a xlink:href="namespaceupgrade__recognition_1_1views.html#a81ca733e1311896909750fdf2ea3fa14" target="_top" xlink:title="upgrade_recognition.views.group\lByLocation">
<polygon fill="white" stroke="black" points="192.5,-0 192.5,-30 351.5,-30 351.5,-0 192.5,-0"/>
<text text-anchor="start" x="200.5" y="-18" font-family="Helvetica,sans-Serif" font-size="10.00">upgrade_recognition.views.group</text>
<text text-anchor="middle" x="272" y="-7" font-family="Helvetica,sans-Serif" font-size="10.00">ByLocation</text>
</a>
</g>
</g>
<!-- Node1&#45;&gt;Node2 -->
<g id="edge1" class="edge"><title>Node1&#45;&gt;Node2</title>
<path fill="none" stroke="midnightblue" d="M156.264,-15C164.802,-15 173.546,-15 182.211,-15"/>
<polygon fill="midnightblue" stroke="midnightblue" points="182.33,-18.5001 192.33,-15 182.329,-11.5001 182.33,-18.5001"/>
</g>
<!-- Node3 -->
<g id="node3" class="node"><title>Node3</title>
<g id="a_node3"><a xlink:href="namespaceupgrade__recognition_1_1views.html#a65ab03e8b1510ac91003dbe34199a241" target="_top" xlink:title="upgrade_recognition.views.group\lByDate">
<polygon fill="white" stroke="black" points="388.5,-0 388.5,-30 547.5,-30 547.5,-0 388.5,-0"/>
<text text-anchor="start" x="396.5" y="-18" font-family="Helvetica,sans-Serif" font-size="10.00">upgrade_recognition.views.group</text>
<text text-anchor="middle" x="468" y="-7" font-family="Helvetica,sans-Serif" font-size="10.00">ByDate</text>
</a>
</g>
</g>
<!-- Node2&#45;&gt;Node3 -->
<g id="edge2" class="edge"><title>Node2&#45;&gt;Node3</title>
<path fill="none" stroke="midnightblue" d="M351.628,-15C360.309,-15 369.194,-15 377.992,-15"/>
<polygon fill="midnightblue" stroke="midnightblue" points="378.261,-18.5001 388.26,-15 378.26,-11.5001 378.261,-18.5001"/>
</g>
<!-- Node4 -->
<g id="node4" class="node"><title>Node4</title>
<g id="a_node4"><a xlink:href="namespaceupgrade__recognition_1_1views.html#a93761824cd33a77aa55470314a5e0c6c" target="_top" xlink:title="upgrade_recognition.views.group\lByNights">
<polygon fill="white" stroke="black" points="584.5,-0 584.5,-30 743.5,-30 743.5,-0 584.5,-0"/>
<text text-anchor="start" x="592.5" y="-18" font-family="Helvetica,sans-Serif" font-size="10.00">upgrade_recognition.views.group</text>
<text text-anchor="middle" x="664" y="-7" font-family="Helvetica,sans-Serif" font-size="10.00">ByNights</text>
</a>
</g>
</g>
<!-- Node3&#45;&gt;Node4 -->
<g id="edge3" class="edge"><title>Node3&#45;&gt;Node4</title>
<path fill="none" stroke="midnightblue" d="M547.628,-15C556.309,-15 565.194,-15 573.992,-15"/>
<polygon fill="midnightblue" stroke="midnightblue" points="574.261,-18.5001 584.26,-15 574.26,-11.5001 574.261,-18.5001"/>
</g>
</g>
</svg>
