<?xml version="1.0" encoding="UTF-8" standalone="no"?>
<!DOCTYPE svg PUBLIC "-//W3C//DTD SVG 1.1//EN"
 "http://www.w3.org/Graphics/SVG/1.1/DTD/svg11.dtd">
<!-- Generated by graphviz version 2.36.0 (20140111.2315)
 -->
<!-- Title: push_backup.getDateFolderName Pages: 1 -->
<svg width="700pt" height="115pt"
 viewBox="0.00 0.00 700.00 115.00" xmlns="http://www.w3.org/2000/svg" xmlns:xlink="http://www.w3.org/1999/xlink">
<g id="graph0" class="graph" transform="scale(1 1) rotate(0) translate(4 111)">
<title>push_backup.getDateFolderName</title>
<polygon fill="white" stroke="none" points="-4,4 -4,-111 696,-111 696,4 -4,4"/>
<!-- Node1 -->
<g id="node1" class="node"><title>Node1</title>
<polygon fill="#bfbfbf" stroke="black" points="0.5,-27.5 0.5,-46.5 165.5,-46.5 165.5,-27.5 0.5,-27.5"/>
<text text-anchor="middle" x="83" y="-34.5" font-family="Helvetica,sans-Serif" font-size="10.00">push_backup.getDateFolderName</text>
</g>
<!-- Node2 -->
<g id="node2" class="node"><title>Node2</title>
<g id="a_node2"><a xlink:href="namespacepush__backup.html#aae407dbc87a64b7a649c305dfc218787" target="_top" xlink:title="push_backup.getBackupPath">
<polygon fill="white" stroke="black" points="202,-47.5 202,-66.5 346,-66.5 346,-47.5 202,-47.5"/>
<text text-anchor="middle" x="274" y="-54.5" font-family="Helvetica,sans-Serif" font-size="10.00">push_backup.getBackupPath</text>
</a>
</g>
</g>
<!-- Node1&#45;&gt;Node2 -->
<g id="edge1" class="edge"><title>Node1&#45;&gt;Node2</title>
<path fill="none" stroke="midnightblue" d="M175.489,-46.6814C184.343,-47.6183 193.232,-48.559 201.845,-49.4704"/>
<polygon fill="midnightblue" stroke="midnightblue" points="175.837,-43.1988 165.524,-45.6269 175.1,-50.1599 175.837,-43.1988"/>
</g>
<!-- Node6 -->
<g id="node6" class="node"><title>Node6</title>
<g id="a_node6"><a xlink:href="classdb__manager_1_1views_1_1DBManager.html#abc86631b06e99155b4f0139168c46c0c" target="_top" xlink:title="db_manager.views.DBManager.view\lUpdates">
<polygon fill="white" stroke="black" points="382,-0 382,-30 558,-30 558,-0 382,-0"/>
<text text-anchor="start" x="390" y="-18" font-family="Helvetica,sans-Serif" font-size="10.00">db_manager.views.DBManager.view</text>
<text text-anchor="middle" x="470" y="-7" font-family="Helvetica,sans-Serif" font-size="10.00">Updates</text>
</a>
</g>
</g>
<!-- Node1&#45;&gt;Node6 -->
<g id="edge7" class="edge"><title>Node1&#45;&gt;Node6</title>
<path fill="none" stroke="midnightblue" d="M175.885,-31.7495C238.309,-28.1824 320.368,-23.4933 381.78,-19.984"/>
<polygon fill="midnightblue" stroke="midnightblue" points="175.433,-28.2695 165.649,-32.3344 175.832,-35.2581 175.433,-28.2695"/>
</g>
<!-- Node3 -->
<g id="node3" class="node"><title>Node3</title>
<g id="a_node3"><a xlink:href="namespacepush__backup.html#a421052de0cc6d5249be8227ec25a2af0" target="_top" xlink:title="push_backup.makeFolder">
<polygon fill="white" stroke="black" points="406,-87.5 406,-106.5 534,-106.5 534,-87.5 406,-87.5"/>
<text text-anchor="middle" x="470" y="-94.5" font-family="Helvetica,sans-Serif" font-size="10.00">push_backup.makeFolder</text>
</a>
</g>
</g>
<!-- Node2&#45;&gt;Node3 -->
<g id="edge2" class="edge"><title>Node2&#45;&gt;Node3</title>
<path fill="none" stroke="midnightblue" d="M331.477,-68.6447C360.534,-74.6359 395.506,-81.8466 422.911,-87.4972"/>
<polygon fill="midnightblue" stroke="midnightblue" points="331.969,-65.1726 321.468,-66.581 330.555,-72.0283 331.969,-65.1726"/>
</g>
<!-- Node5 -->
<g id="node5" class="node"><title>Node5</title>
<g id="a_node5"><a xlink:href="namespacepush__backup.html#a6bdce90563e369acd465fe4584f216b5" target="_top" xlink:title="push_backup.copyJsonFiles">
<polygon fill="white" stroke="black" points="400,-49.5 400,-68.5 540,-68.5 540,-49.5 400,-49.5"/>
<text text-anchor="middle" x="470" y="-56.5" font-family="Helvetica,sans-Serif" font-size="10.00">push_backup.copyJsonFiles</text>
</a>
</g>
</g>
<!-- Node2&#45;&gt;Node5 -->
<g id="edge4" class="edge"><title>Node2&#45;&gt;Node5</title>
<path fill="none" stroke="midnightblue" d="M356.522,-57.8404C370.923,-57.9889 385.792,-58.1422 399.813,-58.2867"/>
<polygon fill="midnightblue" stroke="midnightblue" points="356.172,-54.3367 346.137,-57.7334 356.1,-61.3364 356.172,-54.3367"/>
</g>
<!-- Node2&#45;&gt;Node6 -->
<g id="edge6" class="edge"><title>Node2&#45;&gt;Node6</title>
<path fill="none" stroke="midnightblue" d="M328.813,-45.3498C350.736,-40.6035 376.358,-35.0565 399.657,-30.0124"/>
<polygon fill="midnightblue" stroke="midnightblue" points="328.055,-41.9328 319.022,-47.4695 329.536,-48.7743 328.055,-41.9328"/>
</g>
<!-- Node4 -->
<g id="node4" class="node"><title>Node4</title>
<g id="a_node4"><a xlink:href="namespacepush__backup.html#ac292c4cc22f002a9a7d0fea6302f2901" target="_top" xlink:title="push_backup.main">
<polygon fill="white" stroke="black" points="594,-68.5 594,-87.5 692,-87.5 692,-68.5 594,-68.5"/>
<text text-anchor="middle" x="643" y="-75.5" font-family="Helvetica,sans-Serif" font-size="10.00">push_backup.main</text>
</a>
</g>
</g>
<!-- Node3&#45;&gt;Node4 -->
<g id="edge3" class="edge"><title>Node3&#45;&gt;Node4</title>
<path fill="none" stroke="midnightblue" d="M544.47,-88.8367C561.15,-86.9833 578.454,-85.0607 593.772,-83.3587"/>
<polygon fill="midnightblue" stroke="midnightblue" points="543.741,-85.3961 534.188,-89.9791 544.514,-92.3533 543.741,-85.3961"/>
</g>
<!-- Node5&#45;&gt;Node4 -->
<g id="edge5" class="edge"><title>Node5&#45;&gt;Node4</title>
<path fill="none" stroke="midnightblue" d="M550.312,-67.8124C565.211,-69.4679 580.362,-71.1514 593.943,-72.6603"/>
<polygon fill="midnightblue" stroke="midnightblue" points="550.385,-64.2991 540.059,-66.6733 549.612,-71.2563 550.385,-64.2991"/>
</g>
</g>
</svg>
