<?xml version="1.0" encoding="UTF-8" standalone="no"?>
<!DOCTYPE svg PUBLIC "-//W3C//DTD SVG 1.1//EN"
 "http://www.w3.org/Graphics/SVG/1.1/DTD/svg11.dtd">
<!-- Generated by graphviz version 2.36.0 (20140111.2315)
 -->
<!-- Title: push_backup.makeFolder Pages: 1 -->
<svg width="518pt" height="28pt"
 viewBox="0.00 0.00 518.00 28.00" xmlns="http://www.w3.org/2000/svg" xmlns:xlink="http://www.w3.org/1999/xlink">
<g id="graph0" class="graph" transform="scale(1 1) rotate(0) translate(4 24)">
<title>push_backup.makeFolder</title>
<polygon fill="white" stroke="none" points="-4,4 -4,-24 514,-24 514,4 -4,4"/>
<!-- Node1 -->
<g id="node1" class="node"><title>Node1</title>
<polygon fill="#bfbfbf" stroke="black" points="0,-0.5 0,-19.5 128,-19.5 128,-0.5 0,-0.5"/>
<text text-anchor="middle" x="64" y="-7.5" font-family="Helvetica,sans-Serif" font-size="10.00">push_backup.makeFolder</text>
</g>
<!-- Node2 -->
<g id="node2" class="node"><title>Node2</title>
<g id="a_node2"><a xlink:href="namespacepush__backup.html#aae407dbc87a64b7a649c305dfc218787" target="_top" xlink:title="push_backup.getBackupPath">
<polygon fill="white" stroke="black" points="164,-0.5 164,-19.5 308,-19.5 308,-0.5 164,-0.5"/>
<text text-anchor="middle" x="236" y="-7.5" font-family="Helvetica,sans-Serif" font-size="10.00">push_backup.getBackupPath</text>
</a>
</g>
</g>
<!-- Node1&#45;&gt;Node2 -->
<g id="edge1" class="edge"><title>Node1&#45;&gt;Node2</title>
<path fill="none" stroke="midnightblue" d="M128.302,-10C136.647,-10 145.292,-10 153.884,-10"/>
<polygon fill="midnightblue" stroke="midnightblue" points="153.924,-13.5001 163.924,-10 153.924,-6.5001 153.924,-13.5001"/>
</g>
<!-- Node3 -->
<g id="node3" class="node"><title>Node3</title>
<g id="a_node3"><a xlink:href="namespacepush__backup.html#a41c63d89ed94411061dbcfe0572c3482" target="_top" xlink:title="push_backup.getDateFolderName">
<polygon fill="white" stroke="black" points="344.5,-0.5 344.5,-19.5 509.5,-19.5 509.5,-0.5 344.5,-0.5"/>
<text text-anchor="middle" x="427" y="-7.5" font-family="Helvetica,sans-Serif" font-size="10.00">push_backup.getDateFolderName</text>
</a>
</g>
</g>
<!-- Node2&#45;&gt;Node3 -->
<g id="edge2" class="edge"><title>Node2&#45;&gt;Node3</title>
<path fill="none" stroke="midnightblue" d="M308.183,-10C316.682,-10 325.449,-10 334.186,-10"/>
<polygon fill="midnightblue" stroke="midnightblue" points="334.41,-13.5001 344.41,-10 334.41,-6.5001 334.41,-13.5001"/>
</g>
</g>
</svg>
