<?xml version="1.0" encoding="UTF-8" standalone="no"?>
<!DOCTYPE svg PUBLIC "-//W3C//DTD SVG 1.1//EN"
 "http://www.w3.org/Graphics/SVG/1.1/DTD/svg11.dtd">
<!-- Generated by graphviz version 2.36.0 (20140111.2315)
 -->
<!-- Title: db_manager.push_backup.makeFolder Pages: 1 -->
<svg width="358pt" height="38pt"
 viewBox="0.00 0.00 358.00 38.00" xmlns="http://www.w3.org/2000/svg" xmlns:xlink="http://www.w3.org/1999/xlink">
<g id="graph0" class="graph" transform="scale(1 1) rotate(0) translate(4 34)">
<title>db_manager.push_backup.makeFolder</title>
<polygon fill="white" stroke="none" points="-4,4 -4,-34 354,-34 354,4 -4,4"/>
<!-- Node1 -->
<g id="node1" class="node"><title>Node1</title>
<polygon fill="#bfbfbf" stroke="black" points="0,-0 0,-30 158,-30 158,-0 0,-0"/>
<text text-anchor="start" x="8" y="-18" font-family="Helvetica,sans-Serif" font-size="10.00">db_manager.push_backup.make</text>
<text text-anchor="middle" x="79" y="-7" font-family="Helvetica,sans-Serif" font-size="10.00">Folder</text>
</g>
<!-- Node2 -->
<g id="node2" class="node"><title>Node2</title>
<g id="a_node2"><a xlink:href="namespacedb__manager_1_1push__backup.html#ac571ed4f2dfc037fe74492f6e38674f9" target="_top" xlink:title="db_manager.push_backup.copy\lJsonFiles">
<polygon fill="white" stroke="black" points="194.5,-0 194.5,-30 349.5,-30 349.5,-0 194.5,-0"/>
<text text-anchor="start" x="202.5" y="-18" font-family="Helvetica,sans-Serif" font-size="10.00">db_manager.push_backup.copy</text>
<text text-anchor="middle" x="272" y="-7" font-family="Helvetica,sans-Serif" font-size="10.00">JsonFiles</text>
</a>
</g>
</g>
<!-- Node1&#45;&gt;Node2 -->
<g id="edge1" class="edge"><title>Node1&#45;&gt;Node2</title>
<path fill="none" stroke="midnightblue" d="M168.393,-15C177.088,-15 185.863,-15 194.426,-15"/>
<polygon fill="midnightblue" stroke="midnightblue" points="168.238,-11.5001 158.238,-15 168.238,-18.5001 168.238,-11.5001"/>
</g>
</g>
</svg>
