<?xml version="1.0" encoding="UTF-8" standalone="no"?>
<!DOCTYPE svg PUBLIC "-//W3C//DTD SVG 1.1//EN"
 "http://www.w3.org/Graphics/SVG/1.1/DTD/svg11.dtd">
<!-- Generated by graphviz version 2.36.0 (20140111.2315)
 -->
<!-- Title: db_manager.push_backup.getDateFolderName Pages: 1 -->
<svg width="726pt" height="61pt"
 viewBox="0.00 0.00 726.00 61.00" xmlns="http://www.w3.org/2000/svg" xmlns:xlink="http://www.w3.org/1999/xlink">
<g id="graph0" class="graph" transform="scale(1 1) rotate(0) translate(4 57)">
<title>db_manager.push_backup.getDateFolderName</title>
<polygon fill="white" stroke="none" points="-4,4 -4,-57 722,-57 722,4 -4,4"/>
<!-- Node1 -->
<g id="node1" class="node"><title>Node1</title>
<polygon fill="#bfbfbf" stroke="black" points="0.5,-1 0.5,-31 147.5,-31 147.5,-1 0.5,-1"/>
<text text-anchor="start" x="8.5" y="-19" font-family="Helvetica,sans-Serif" font-size="10.00">db_manager.push_backup.get</text>
<text text-anchor="middle" x="74" y="-8" font-family="Helvetica,sans-Serif" font-size="10.00">DateFolderName</text>
</g>
<!-- Node2 -->
<g id="node2" class="node"><title>Node2</title>
<g id="a_node2"><a xlink:href="namespacedb__manager_1_1push__backup.html#adfa72c05165c5f4f9ce09dd24baa2517" target="_top" xlink:title="db_manager.push_backup.get\lBackupPath">
<polygon fill="white" stroke="black" points="184.5,-1 184.5,-31 331.5,-31 331.5,-1 184.5,-1"/>
<text text-anchor="start" x="192.5" y="-19" font-family="Helvetica,sans-Serif" font-size="10.00">db_manager.push_backup.get</text>
<text text-anchor="middle" x="258" y="-8" font-family="Helvetica,sans-Serif" font-size="10.00">BackupPath</text>
</a>
</g>
</g>
<!-- Node1&#45;&gt;Node2 -->
<g id="edge1" class="edge"><title>Node1&#45;&gt;Node2</title>
<path fill="none" stroke="midnightblue" d="M157.994,-16C166.806,-16 175.72,-16 184.4,-16"/>
<polygon fill="midnightblue" stroke="midnightblue" points="157.716,-12.5001 147.716,-16 157.716,-19.5001 157.716,-12.5001"/>
</g>
<!-- Node3 -->
<g id="node3" class="node"><title>Node3</title>
<g id="a_node3"><a xlink:href="namespacedb__manager_1_1push__backup.html#a0a85d3f5fddebba8c1a4d73c6b84cc3a" target="_top" xlink:title="db_manager.push_backup.make\lFolder">
<polygon fill="white" stroke="black" points="368,-23 368,-53 526,-53 526,-23 368,-23"/>
<text text-anchor="start" x="376" y="-41" font-family="Helvetica,sans-Serif" font-size="10.00">db_manager.push_backup.make</text>
<text text-anchor="middle" x="447" y="-30" font-family="Helvetica,sans-Serif" font-size="10.00">Folder</text>
</a>
</g>
</g>
<!-- Node2&#45;&gt;Node3 -->
<g id="edge2" class="edge"><title>Node2&#45;&gt;Node3</title>
<path fill="none" stroke="midnightblue" d="M341.71,-25.7306C350.416,-26.7548 359.248,-27.7939 367.899,-28.8117"/>
<polygon fill="midnightblue" stroke="midnightblue" points="341.907,-22.2297 331.567,-24.5373 341.089,-29.1818 341.907,-22.2297"/>
</g>
<!-- Node4 -->
<g id="node4" class="node"><title>Node4</title>
<g id="a_node4"><a xlink:href="namespacedb__manager_1_1push__backup.html#ac571ed4f2dfc037fe74492f6e38674f9" target="_top" xlink:title="db_manager.push_backup.copy\lJsonFiles">
<polygon fill="white" stroke="black" points="562.5,-1 562.5,-31 717.5,-31 717.5,-1 562.5,-1"/>
<text text-anchor="start" x="570.5" y="-19" font-family="Helvetica,sans-Serif" font-size="10.00">db_manager.push_backup.copy</text>
<text text-anchor="middle" x="640" y="-8" font-family="Helvetica,sans-Serif" font-size="10.00">JsonFiles</text>
</a>
</g>
</g>
<!-- Node2&#45;&gt;Node4 -->
<g id="edge4" class="edge"><title>Node2&#45;&gt;Node4</title>
<path fill="none" stroke="midnightblue" d="M341.982,-14.319C350.766,-14.1884 359.566,-14.0774 368,-14 438.219,-13.3558 455.781,-13.3786 526,-14 537.772,-14.1042 550.233,-14.2694 562.414,-14.4613"/>
<polygon fill="midnightblue" stroke="midnightblue" points="341.644,-10.8238 331.701,-14.4806 341.754,-17.8229 341.644,-10.8238"/>
</g>
<!-- Node3&#45;&gt;Node4 -->
<g id="edge3" class="edge"><title>Node3&#45;&gt;Node4</title>
<path fill="none" stroke="midnightblue" d="M536.393,-27.8187C545.088,-26.8171 553.863,-25.8063 562.426,-24.82"/>
<polygon fill="midnightblue" stroke="midnightblue" points="535.772,-24.3669 526.238,-28.9883 536.573,-31.3209 535.772,-24.3669"/>
</g>
</g>
</svg>
