<?xml version="1.0" encoding="UTF-8" standalone="no"?>
<!DOCTYPE svg PUBLIC "-//W3C//DTD SVG 1.1//EN"
 "http://www.w3.org/Graphics/SVG/1.1/DTD/svg11.dtd">
<!-- Generated by graphviz version 2.36.0 (20140111.2315)
 -->
<!-- Title: upgrade_recognition.views.groupByDate Pages: 1 -->
<svg width="556pt" height="38pt"
 viewBox="0.00 0.00 556.00 38.00" xmlns="http://www.w3.org/2000/svg" xmlns:xlink="http://www.w3.org/1999/xlink">
<g id="graph0" class="graph" transform="scale(1 1) rotate(0) translate(4 34)">
<title>upgrade_recognition.views.groupByDate</title>
<polygon fill="white" stroke="none" points="-4,4 -4,-34 552,-34 552,4 -4,4"/>
<!-- Node1 -->
<g id="node1" class="node"><title>Node1</title>
<polygon fill="#bfbfbf" stroke="black" points="0.5,-0 0.5,-30 159.5,-30 159.5,-0 0.5,-0"/>
<text text-anchor="start" x="8.5" y="-18" font-family="Helvetica,sans-Serif" font-size="10.00">upgrade_recognition.views.group</text>
<text text-anchor="middle" x="80" y="-7" font-family="Helvetica,sans-Serif" font-size="10.00">ByDate</text>
</g>
<!-- Node2 -->
<g id="node2" class="node"><title>Node2</title>
<g id="a_node2"><a xlink:href="namespaceupgrade__recognition_1_1views.html#a81ca733e1311896909750fdf2ea3fa14" target="_top" xlink:title="upgrade_recognition.views.group\lByLocation">
<polygon fill="white" stroke="black" points="196.5,-0 196.5,-30 355.5,-30 355.5,-0 196.5,-0"/>
<text text-anchor="start" x="204.5" y="-18" font-family="Helvetica,sans-Serif" font-size="10.00">upgrade_recognition.views.group</text>
<text text-anchor="middle" x="276" y="-7" font-family="Helvetica,sans-Serif" font-size="10.00">ByLocation</text>
</a>
</g>
</g>
<!-- Node1&#45;&gt;Node2 -->
<g id="edge1" class="edge"><title>Node1&#45;&gt;Node2</title>
<path fill="none" stroke="midnightblue" d="M169.895,-15C178.691,-15 187.577,-15 196.26,-15"/>
<polygon fill="midnightblue" stroke="midnightblue" points="169.628,-11.5001 159.628,-15 169.628,-18.5001 169.628,-11.5001"/>
</g>
<!-- Node3 -->
<g id="node3" class="node"><title>Node3</title>
<g id="a_node3"><a xlink:href="namespaceupgrade__recognition_1_1views.html#a317a39c580c2f94d0dccb070db6f10b3" target="_top" xlink:title="upgrade_recognition.views.main">
<polygon fill="white" stroke="black" points="392,-5.5 392,-24.5 548,-24.5 548,-5.5 392,-5.5"/>
<text text-anchor="middle" x="470" y="-12.5" font-family="Helvetica,sans-Serif" font-size="10.00">upgrade_recognition.views.main</text>
</a>
</g>
</g>
<!-- Node2&#45;&gt;Node3 -->
<g id="edge2" class="edge"><title>Node2&#45;&gt;Node3</title>
<path fill="none" stroke="midnightblue" d="M365.767,-15C374.432,-15 383.177,-15 391.716,-15"/>
<polygon fill="midnightblue" stroke="midnightblue" points="365.648,-11.5001 355.648,-15 365.648,-18.5001 365.648,-11.5001"/>
</g>
</g>
</svg>
