<?xml version="1.0" encoding="UTF-8" standalone="no"?>
<!DOCTYPE svg PUBLIC "-//W3C//DTD SVG 1.1//EN"
 "http://www.w3.org/Graphics/SVG/1.1/DTD/svg11.dtd">
<!-- Generated by graphviz version 2.36.0 (20140111.2315)
 -->
<!-- Title: db_manager.push_backup.copyJsonFiles Pages: 1 -->
<svg width="726pt" height="60pt"
 viewBox="0.00 0.00 726.00 60.00" xmlns="http://www.w3.org/2000/svg" xmlns:xlink="http://www.w3.org/1999/xlink">
<g id="graph0" class="graph" transform="scale(1 1) rotate(0) translate(4 56)">
<title>db_manager.push_backup.copyJsonFiles</title>
<polygon fill="white" stroke="none" points="-4,4 -4,-56 722,-56 722,4 -4,4"/>
<!-- Node1 -->
<g id="node1" class="node"><title>Node1</title>
<polygon fill="#bfbfbf" stroke="black" points="0.5,-22 0.5,-52 155.5,-52 155.5,-22 0.5,-22"/>
<text text-anchor="start" x="8.5" y="-40" font-family="Helvetica,sans-Serif" font-size="10.00">db_manager.push_backup.copy</text>
<text text-anchor="middle" x="78" y="-29" font-family="Helvetica,sans-Serif" font-size="10.00">JsonFiles</text>
</g>
<!-- Node2 -->
<g id="node2" class="node"><title>Node2</title>
<g id="a_node2"><a xlink:href="namespacedb__manager_1_1push__backup.html#adfa72c05165c5f4f9ce09dd24baa2517" target="_top" xlink:title="db_manager.push_backup.get\lBackupPath">
<polygon fill="white" stroke="black" points="386.5,-22 386.5,-52 533.5,-52 533.5,-22 386.5,-22"/>
<text text-anchor="start" x="394.5" y="-40" font-family="Helvetica,sans-Serif" font-size="10.00">db_manager.push_backup.get</text>
<text text-anchor="middle" x="460" y="-29" font-family="Helvetica,sans-Serif" font-size="10.00">BackupPath</text>
</a>
</g>
</g>
<!-- Node1&#45;&gt;Node2 -->
<g id="edge1" class="edge"><title>Node1&#45;&gt;Node2</title>
<path fill="none" stroke="midnightblue" d="M155.586,-38.5387C167.767,-38.7306 180.228,-38.8958 192,-39 262.219,-39.6214 279.781,-39.6442 350,-39 358.434,-38.9226 367.234,-38.8116 376.018,-38.681"/>
<polygon fill="midnightblue" stroke="midnightblue" points="376.356,-42.1762 386.299,-38.5194 376.246,-35.1771 376.356,-42.1762"/>
</g>
<!-- Node4 -->
<g id="node4" class="node"><title>Node4</title>
<g id="a_node4"><a xlink:href="namespacedb__manager_1_1push__backup.html#a0a85d3f5fddebba8c1a4d73c6b84cc3a" target="_top" xlink:title="db_manager.push_backup.make\lFolder">
<polygon fill="white" stroke="black" points="192,-0 192,-30 350,-30 350,-0 192,-0"/>
<text text-anchor="start" x="200" y="-18" font-family="Helvetica,sans-Serif" font-size="10.00">db_manager.push_backup.make</text>
<text text-anchor="middle" x="271" y="-7" font-family="Helvetica,sans-Serif" font-size="10.00">Folder</text>
</a>
</g>
</g>
<!-- Node1&#45;&gt;Node4 -->
<g id="edge3" class="edge"><title>Node1&#45;&gt;Node4</title>
<path fill="none" stroke="midnightblue" d="M155.586,-28.1785C164.165,-27.1904 172.955,-26.1779 181.666,-25.1746"/>
<polygon fill="midnightblue" stroke="midnightblue" points="182.303,-28.6244 191.837,-24.003 181.502,-21.6704 182.303,-28.6244"/>
</g>
<!-- Node3 -->
<g id="node3" class="node"><title>Node3</title>
<g id="a_node3"><a xlink:href="namespacedb__manager_1_1push__backup.html#a015b5398c0175cad9e627567a359c09e" target="_top" xlink:title="db_manager.push_backup.get\lDateFolderName">
<polygon fill="white" stroke="black" points="570.5,-22 570.5,-52 717.5,-52 717.5,-22 570.5,-22"/>
<text text-anchor="start" x="578.5" y="-40" font-family="Helvetica,sans-Serif" font-size="10.00">db_manager.push_backup.get</text>
<text text-anchor="middle" x="644" y="-29" font-family="Helvetica,sans-Serif" font-size="10.00">DateFolderName</text>
</a>
</g>
</g>
<!-- Node2&#45;&gt;Node3 -->
<g id="edge2" class="edge"><title>Node2&#45;&gt;Node3</title>
<path fill="none" stroke="midnightblue" d="M533.716,-37C542.398,-37 551.312,-37 560.123,-37"/>
<polygon fill="midnightblue" stroke="midnightblue" points="560.4,-40.5001 570.4,-37 560.4,-33.5001 560.4,-40.5001"/>
</g>
<!-- Node4&#45;&gt;Node2 -->
<g id="edge4" class="edge"><title>Node4&#45;&gt;Node2</title>
<path fill="none" stroke="midnightblue" d="M350.221,-24.2025C358.854,-25.2181 367.664,-26.2546 376.349,-27.2763"/>
<polygon fill="midnightblue" stroke="midnightblue" points="376.126,-30.7742 386.467,-28.4667 376.944,-23.8221 376.126,-30.7742"/>
</g>
</g>
</svg>
