<?xml version="1.0" encoding="UTF-8" standalone="no"?>
<!DOCTYPE svg PUBLIC "-//W3C//DTD SVG 1.1//EN"
 "http://www.w3.org/Graphics/SVG/1.1/DTD/svg11.dtd">
<!-- Generated by graphviz version 2.36.0 (20140111.2315)
 -->
<!-- Title: db_manager.push_backup.getBackupPath Pages: 1 -->
<svg width="542pt" height="61pt"
 viewBox="0.00 0.00 542.00 61.00" xmlns="http://www.w3.org/2000/svg" xmlns:xlink="http://www.w3.org/1999/xlink">
<g id="graph0" class="graph" transform="scale(1 1) rotate(0) translate(4 57)">
<title>db_manager.push_backup.getBackupPath</title>
<polygon fill="white" stroke="none" points="-4,4 -4,-57 538,-57 538,4 -4,4"/>
<!-- Node1 -->
<g id="node1" class="node"><title>Node1</title>
<polygon fill="#bfbfbf" stroke="black" points="0.5,-1 0.5,-31 147.5,-31 147.5,-1 0.5,-1"/>
<text text-anchor="start" x="8.5" y="-19" font-family="Helvetica,sans-Serif" font-size="10.00">db_manager.push_backup.get</text>
<text text-anchor="middle" x="74" y="-8" font-family="Helvetica,sans-Serif" font-size="10.00">BackupPath</text>
</g>
<!-- Node2 -->
<g id="node2" class="node"><title>Node2</title>
<g id="a_node2"><a xlink:href="namespacedb__manager_1_1push__backup.html#a0a85d3f5fddebba8c1a4d73c6b84cc3a" target="_top" xlink:title="db_manager.push_backup.make\lFolder">
<polygon fill="white" stroke="black" points="184,-23 184,-53 342,-53 342,-23 184,-23"/>
<text text-anchor="start" x="192" y="-41" font-family="Helvetica,sans-Serif" font-size="10.00">db_manager.push_backup.make</text>
<text text-anchor="middle" x="263" y="-30" font-family="Helvetica,sans-Serif" font-size="10.00">Folder</text>
</a>
</g>
</g>
<!-- Node1&#45;&gt;Node2 -->
<g id="edge1" class="edge"><title>Node1&#45;&gt;Node2</title>
<path fill="none" stroke="midnightblue" d="M157.71,-25.7306C166.416,-26.7548 175.248,-27.7939 183.899,-28.8117"/>
<polygon fill="midnightblue" stroke="midnightblue" points="157.907,-22.2297 147.567,-24.5373 157.089,-29.1818 157.907,-22.2297"/>
</g>
<!-- Node3 -->
<g id="node3" class="node"><title>Node3</title>
<g id="a_node3"><a xlink:href="namespacedb__manager_1_1push__backup.html#ac571ed4f2dfc037fe74492f6e38674f9" target="_top" xlink:title="db_manager.push_backup.copy\lJsonFiles">
<polygon fill="white" stroke="black" points="378.5,-1 378.5,-31 533.5,-31 533.5,-1 378.5,-1"/>
<text text-anchor="start" x="386.5" y="-19" font-family="Helvetica,sans-Serif" font-size="10.00">db_manager.push_backup.copy</text>
<text text-anchor="middle" x="456" y="-8" font-family="Helvetica,sans-Serif" font-size="10.00">JsonFiles</text>
</a>
</g>
</g>
<!-- Node1&#45;&gt;Node3 -->
<g id="edge3" class="edge"><title>Node1&#45;&gt;Node3</title>
<path fill="none" stroke="midnightblue" d="M157.982,-14.319C166.766,-14.1884 175.566,-14.0774 184,-14 254.219,-13.3558 271.781,-13.3786 342,-14 353.772,-14.1042 366.233,-14.2694 378.414,-14.4613"/>
<polygon fill="midnightblue" stroke="midnightblue" points="157.644,-10.8238 147.701,-14.4806 157.754,-17.8229 157.644,-10.8238"/>
</g>
<!-- Node2&#45;&gt;Node3 -->
<g id="edge2" class="edge"><title>Node2&#45;&gt;Node3</title>
<path fill="none" stroke="midnightblue" d="M352.393,-27.8187C361.088,-26.8171 369.863,-25.8063 378.426,-24.82"/>
<polygon fill="midnightblue" stroke="midnightblue" points="351.772,-24.3669 342.238,-28.9883 352.573,-31.3209 351.772,-24.3669"/>
</g>
</g>
</svg>
