<?xml version="1.0" encoding="UTF-8" standalone="no"?>
<!DOCTYPE svg PUBLIC "-//W3C//DTD SVG 1.1//EN"
 "http://www.w3.org/Graphics/SVG/1.1/DTD/svg11.dtd">
<!-- Generated by graphviz version 2.36.0 (20140111.2315)
 -->
<!-- Title: push_backup.getBackupPath Pages: 1 -->
<svg width="498pt" height="115pt"
 viewBox="0.00 0.00 498.00 115.00" xmlns="http://www.w3.org/2000/svg" xmlns:xlink="http://www.w3.org/1999/xlink">
<g id="graph0" class="graph" transform="scale(1 1) rotate(0) translate(4 111)">
<title>push_backup.getBackupPath</title>
<polygon fill="white" stroke="none" points="-4,4 -4,-111 494,-111 494,4 -4,4"/>
<!-- Node1 -->
<g id="node1" class="node"><title>Node1</title>
<polygon fill="#bfbfbf" stroke="black" points="0,-49.5 0,-68.5 144,-68.5 144,-49.5 0,-49.5"/>
<text text-anchor="middle" x="72" y="-56.5" font-family="Helvetica,sans-Serif" font-size="10.00">push_backup.getBackupPath</text>
</g>
<!-- Node2 -->
<g id="node2" class="node"><title>Node2</title>
<g id="a_node2"><a xlink:href="namespacepush__backup.html#a421052de0cc6d5249be8227ec25a2af0" target="_top" xlink:title="push_backup.makeFolder">
<polygon fill="white" stroke="black" points="204,-87.5 204,-106.5 332,-106.5 332,-87.5 204,-87.5"/>
<text text-anchor="middle" x="268" y="-94.5" font-family="Helvetica,sans-Serif" font-size="10.00">push_backup.makeFolder</text>
</a>
</g>
</g>
<!-- Node1&#45;&gt;Node2 -->
<g id="edge1" class="edge"><title>Node1&#45;&gt;Node2</title>
<path fill="none" stroke="midnightblue" d="M131.905,-70.5381C159.575,-75.958 192.162,-82.341 218.398,-87.4799"/>
<polygon fill="midnightblue" stroke="midnightblue" points="132.441,-67.0766 121.954,-68.589 131.095,-73.946 132.441,-67.0766"/>
</g>
<!-- Node4 -->
<g id="node4" class="node"><title>Node4</title>
<g id="a_node4"><a xlink:href="namespacepush__backup.html#a6bdce90563e369acd465fe4584f216b5" target="_top" xlink:title="push_backup.copyJsonFiles">
<polygon fill="white" stroke="black" points="198,-49.5 198,-68.5 338,-68.5 338,-49.5 198,-49.5"/>
<text text-anchor="middle" x="268" y="-56.5" font-family="Helvetica,sans-Serif" font-size="10.00">push_backup.copyJsonFiles</text>
</a>
</g>
</g>
<!-- Node1&#45;&gt;Node4 -->
<g id="edge3" class="edge"><title>Node1&#45;&gt;Node4</title>
<path fill="none" stroke="midnightblue" d="M154.522,-59C168.923,-59 183.792,-59 197.813,-59"/>
<polygon fill="midnightblue" stroke="midnightblue" points="154.137,-55.5001 144.137,-59 154.137,-62.5001 154.137,-55.5001"/>
</g>
<!-- Node5 -->
<g id="node5" class="node"><title>Node5</title>
<g id="a_node5"><a xlink:href="classdb__manager_1_1views_1_1DBManager.html#abc86631b06e99155b4f0139168c46c0c" target="_top" xlink:title="db_manager.views.DBManager.view\lUpdates">
<polygon fill="white" stroke="black" points="180,-0 180,-30 356,-30 356,-0 180,-0"/>
<text text-anchor="start" x="188" y="-18" font-family="Helvetica,sans-Serif" font-size="10.00">db_manager.views.DBManager.view</text>
<text text-anchor="middle" x="268" y="-7" font-family="Helvetica,sans-Serif" font-size="10.00">Updates</text>
</a>
</g>
</g>
<!-- Node1&#45;&gt;Node5 -->
<g id="edge5" class="edge"><title>Node1&#45;&gt;Node5</title>
<path fill="none" stroke="midnightblue" d="M125.085,-47.1868C148.294,-41.9231 175.904,-35.6609 200.575,-30.0654"/>
<polygon fill="midnightblue" stroke="midnightblue" points="124.073,-43.8274 115.095,-49.4527 125.622,-50.654 124.073,-43.8274"/>
</g>
<!-- Node3 -->
<g id="node3" class="node"><title>Node3</title>
<g id="a_node3"><a xlink:href="namespacepush__backup.html#ac292c4cc22f002a9a7d0fea6302f2901" target="_top" xlink:title="push_backup.main">
<polygon fill="white" stroke="black" points="392,-68.5 392,-87.5 490,-87.5 490,-68.5 392,-68.5"/>
<text text-anchor="middle" x="441" y="-75.5" font-family="Helvetica,sans-Serif" font-size="10.00">push_backup.main</text>
</a>
</g>
</g>
<!-- Node2&#45;&gt;Node3 -->
<g id="edge2" class="edge"><title>Node2&#45;&gt;Node3</title>
<path fill="none" stroke="midnightblue" d="M342.47,-88.8367C359.15,-86.9833 376.454,-85.0607 391.772,-83.3587"/>
<polygon fill="midnightblue" stroke="midnightblue" points="341.741,-85.3961 332.188,-89.9791 342.514,-92.3533 341.741,-85.3961"/>
</g>
<!-- Node4&#45;&gt;Node3 -->
<g id="edge4" class="edge"><title>Node4&#45;&gt;Node3</title>
<path fill="none" stroke="midnightblue" d="M348.312,-67.8124C363.211,-69.4679 378.362,-71.1514 391.943,-72.6603"/>
<polygon fill="midnightblue" stroke="midnightblue" points="348.385,-64.2991 338.059,-66.6733 347.612,-71.2563 348.385,-64.2991"/>
</g>
</g>
</svg>
